<?xml version="1.0" encoding="UTF-8" standalone="no"?>
<!-- Created with Inkscape (http://www.inkscape.org/) -->

<svg
   width="142.97113mm"
   height="78.963715mm"
   viewBox="0 0 142.97113 78.963715"
   version="1.1"
   id="svg5"
   inkscape:version="1.1.1 (3bf5ae0d25, 2021-09-20)"
   sodipodi:docname="archea.svg"
   xmlns:inkscape="http://www.inkscape.org/namespaces/inkscape"
   xmlns:sodipodi="http://sodipodi.sourceforge.net/DTD/sodipodi-0.dtd"
   xmlns="http://www.w3.org/2000/svg"
   xmlns:svg="http://www.w3.org/2000/svg">
  <sodipodi:namedview
     id="namedview7"
     pagecolor="#ffffff"
     bordercolor="#666666"
     borderopacity="1.0"
     inkscape:pageshadow="2"
     inkscape:pageopacity="0.0"
     inkscape:pagecheckerboard="0"
     inkscape:document-units="mm"
     showgrid="false"
     fit-margin-top="0"
     fit-margin-left="0"
     fit-margin-right="0"
     fit-margin-bottom="0"
     inkscape:zoom="1.184265"
     inkscape:cx="396.44844"
     inkscape:cy="182.39161"
     inkscape:window-width="1920"
     inkscape:window-height="1043"
     inkscape:window-x="0"
     inkscape:window-y="0"
     inkscape:window-maximized="1"
     inkscape:current-layer="layer1" />
  <defs
     id="defs2">
    <filter
       style="color-interpolation-filters:sRGB"
       inkscape:label="Color Shift"
       id="filter8856"
       x="0"
       y="0"
       width="1"
       height="1">
      <feColorMatrix
         type="hueRotate"
         values="43"
         result="color1"
         id="feColorMatrix8852" />
      <feColorMatrix
         type="saturate"
         values="1"
         result="color2"
         id="feColorMatrix8854" />
    </filter>
  </defs>
  <g
     inkscape:label="Camada 1"
     inkscape:groupmode="layer"
     id="layer1"
     transform="translate(-85.432746,-22.132966)">
    <g
       id="g8514"
       style="filter:url(#filter8856)">
      <rect
         style="fill:#14d32b;fill-opacity:1;fill-rule:evenodd;stroke-width:0.264583;stroke-linejoin:round;stroke-dasharray:0.529167, 0.264583"
         id="rect1498-92"
         width="22.748869"
         height="19.526598"
         x="148.25604"
         y="37.712528"
         ry="0.60203022" />
      <rect
         style="fill:#14d32b;fill-opacity:1;fill-rule:evenodd;stroke-width:0.264583;stroke-linejoin:round;stroke-dasharray:0.529167, 0.264583"
         id="rect1498-23"
         width="22.748869"
         height="19.526598"
         x="131.16475"
         y="63.070206"
         ry="0.60203022" />
      <rect
         style="fill:#14d32b;fill-opacity:1;fill-rule:evenodd;stroke-width:0.264583;stroke-linejoin:round;stroke-dasharray:0.529167, 0.264583"
         id="rect1498-75"
         width="22.748869"
         height="19.526598"
         x="125.11857"
         y="63.176678"
         ry="0.60203022" />
      <rect
         style="fill:#14d32b;fill-opacity:1;fill-rule:evenodd;stroke-width:0.264583;stroke-linejoin:round;stroke-dasharray:0.529167, 0.264583"
         id="rect1498-20"
         width="22.748869"
         height="19.526598"
         x="161.77025"
         y="52.480316"
         ry="0.60203022" />
      <rect
         style="fill:#14d32b;fill-opacity:1;fill-rule:evenodd;stroke-width:0.264583;stroke-linejoin:round;stroke-dasharray:0.529167, 0.264583"
         id="rect1498-7"
         width="22.748869"
         height="19.526598"
         x="139.96918"
         y="49.004787"
         ry="0.60203022" />
      <rect
         style="fill:#14d32b;fill-opacity:1;fill-rule:evenodd;stroke-width:0.264583;stroke-linejoin:round;stroke-dasharray:0.529167, 0.264583"
         id="rect1498-9"
         width="22.748869"
         height="19.526598"
         x="160.50642"
         y="38.262234"
         ry="0.60203022" />
      <rect
         style="fill:#14d32b;fill-opacity:1;fill-rule:evenodd;stroke-width:0.264583;stroke-linejoin:round;stroke-dasharray:0.529167, 0.264583"
         id="rect1498-1"
         width="22.748869"
         height="19.526598"
         x="157.34685"
         y="63.53883"
         ry="0.60203022" />
      <rect
         style="fill:#14d32b;fill-opacity:1;fill-rule:evenodd;stroke-width:0.264583;stroke-linejoin:round;stroke-dasharray:0.529167, 0.264583"
         id="rect1498-8"
         width="22.748869"
         height="19.526598"
         x="127.64684"
         y="63.22287"
         ry="0.60203022" />
      <rect
         style="fill:#14d32b;fill-opacity:1;fill-rule:evenodd;stroke-width:0.264583;stroke-linejoin:round;stroke-dasharray:0.529167, 0.264583"
         id="rect1498"
         width="22.748869"
         height="19.526598"
         x="126.22903"
         y="30.75354"
         ry="0.60203022" />
      <rect
         style="fill:#14d32b;fill-opacity:1;fill-rule:evenodd;stroke-width:0.264583;stroke-linejoin:round;stroke-dasharray:0.529167, 0.264583"
         id="rect1498-2"
         width="22.748869"
         height="19.526598"
         x="155.13515"
         y="25.623936"
         ry="0.60203022" />
      <rect
         style="fill:#14d32b;fill-opacity:1;fill-rule:evenodd;stroke-width:0.264583;stroke-linejoin:round;stroke-dasharray:0.529167, 0.264583"
         id="rect1498-6"
         width="22.748869"
         height="19.526598"
         x="155.4511"
         y="25.623936"
         ry="0.60203022" />
      <path
         style="fill:#0fb023;stroke-width:0.264583"
         d="m 130.33191,82.26297 c -1.25687,-0.81497 -1.59028,-1.77275 -1.19742,-3.43982 l 0.23557,-0.99964 1.90914,-0.0777 c 1.05003,-0.0428 1.92402,-0.19158 1.94221,-0.33073 0.0182,-0.13914 0.048,-0.36208 0.0662,-0.4954 0.078,-0.57146 1.28044,-1.87425 1.72993,-1.87425 0.28092,0 0.55462,-0.24565 0.64077,-0.57509 0.19927,-0.76199 0.0121,-1.01241 -0.75653,-1.01241 -0.35015,0 -1.04345,-0.35719 -1.54067,-0.79375 -1.09697,-0.96316 -1.24433,-0.97303 -1.97534,-0.1323 -0.5681,0.65338 -1.47243,0.87715 -1.74732,0.43236 -0.0779,-0.126 -0.44187,-0.1717 -0.80888,-0.10154 -0.97539,0.18646 -1.99117,-0.57284 -1.99117,-1.48841 0,-1.0795 1.04046,-2.46743 2.17279,-2.89839 0.89578,-0.34094 1.07245,-0.32284 2.20627,0.22603 1.33196,0.64479 1.69368,0.49569 1.7023,-0.70171 0.002,-0.30961 0.17557,-0.70526 0.3852,-0.87924 0.20963,-0.17398 0.32327,-0.46714 0.25254,-0.65147 -0.17281,-0.45034 0.58257,-1.04663 1.08273,-0.8547 0.26488,0.10165 0.40025,0.51119 0.40025,1.21092 0,0.77456 0.13686,1.13058 0.51177,1.33122 0.76868,0.41139 0.78421,0.38337 0.62775,-1.1326 -0.24461,-2.36998 0.72832,-3.58681 2.88981,-3.61426 1.7586,-0.0223 4.04209,0.21974 4.09504,0.43412 0.03,0.12155 -0.0159,0.50168 -0.10196,0.84472 -0.0966,0.38508 -0.0197,0.70828 0.20113,0.84476 0.54769,0.33849 1.03687,-0.23801 1.03687,-1.22196 0,-0.71335 0.30686,-1.20512 1.62589,-2.60559 1.64632,-1.74795 1.97738,-1.9242 4.78104,-2.54537 1.90651,-0.4224 2.3421,-0.14954 2.28458,1.43111 l -0.0397,1.09209 -0.1587,-1.19063 c -0.13106,-0.98326 -0.2646,-1.20564 -0.76675,-1.27684 -1.16821,-0.16564 -4.31332,1.99001 -4.2721,2.92808 0.0311,0.70859 1.43642,1.44159 3.08746,1.61042 1.78799,0.18283 2.16294,-0.0645 2.21046,-1.45833 0.0115,-0.33699 0.0758,-0.47922 0.14297,-0.31608 0.0671,0.16314 -0.0718,1.83002 -0.3088,3.70417 -0.23699,1.87415 -0.53328,4.22134 -0.65843,5.21599 -0.12515,0.99465 -0.34136,1.94715 -0.48049,2.11667 -0.13911,0.16952 -0.29411,0.59371 -0.34444,0.94265 -0.0503,0.34894 -0.32911,0.76566 -0.61952,0.92604 -1.57056,0.86734 -1.95596,1.26159 -2.03538,2.08212 -0.0624,0.64478 -0.27522,0.94359 -0.87618,1.23019 -0.43656,0.20821 -1.21047,0.77355 -1.71979,1.25632 -0.50932,0.48277 -1.18979,0.8788 -1.51215,0.88006 -0.32236,0.001 -0.99292,0.35948 -1.49013,0.79604 -0.49722,0.43656 -1.01869,0.79375 -1.15883,0.79375 -0.48232,0 -1.13056,-0.96902 -1.13056,-1.69002 0,-0.86386 -1.94043,-3.07248 -2.69941,-3.07248 -0.27316,0 -0.97441,0.24373 -1.55833,0.54163 -0.85207,0.43469 -1.0285,0.64611 -0.89368,1.0709 0.23254,0.73265 -0.87108,2.11056 -2.62044,3.27172 -0.77606,0.51512 -1.46417,0.93659 -1.52912,0.93659 -0.0649,0 -0.61771,-0.32397 -1.22836,-0.71992 z m 2.79756,-1.54404 c 0.87155,-0.61046 0.72208,-0.9874 -0.60856,-1.53462 -0.95728,-0.39369 -1.27246,-0.42668 -1.5865,-0.16604 -0.53579,0.44466 -0.49159,0.95451 0.13726,1.58337 0.63569,0.63569 1.26636,0.67163 2.0578,0.11729 z m 13.17551,-3.71967 c 1.13239,-0.76846 3.27989,-2.99678 3.28544,-3.40908 0.002,-0.14552 -0.26467,-0.78077 -0.59249,-1.41167 l -0.59605,-1.14709 1.12448,-0.9768 c 0.61846,-0.53723 1.12448,-1.12464 1.12448,-1.30534 0,-0.33045 -0.26557,-0.30488 -2.35885,0.22712 -0.7251,0.18428 -0.97174,0.14 -1.24835,-0.22412 -0.45609,-0.60037 -0.44637,-0.98004 0.0353,-1.37981 0.53662,-0.44535 0.49908,-0.72566 -0.12366,-0.9233 -0.36427,-0.11562 -0.94733,0.15702 -1.94227,0.90821 -0.78195,0.59038 -1.54337,1.07342 -1.69204,1.07342 -0.14867,0 -0.73316,0.36789 -1.29888,0.81753 -0.56571,0.44963 -1.20716,0.91787 -1.42544,1.04053 -0.34789,0.19549 -0.33973,0.32005 0.0661,1.00924 0.27591,0.4685 0.46302,1.3257 0.46302,2.1212 0,1.05137 0.17199,1.58982 0.80961,2.53459 0.44529,0.65979 1.01084,1.31699 1.25677,1.46043 0.79787,0.46536 2.06421,0.29651 3.11276,-0.41506 z m -6.35917,-2.50353 c 0.89542,-1.73156 -0.0469,-2.16059 -1.42329,-0.64802 -0.95161,1.04575 -1.03382,1.38111 -0.37324,1.5227 0.8172,0.17517 1.40049,-0.10882 1.79653,-0.87468 z m -1.59402,-2.39983 c 0.60979,-0.5354 0.92017,-1.02277 0.8691,-1.36471 -0.11586,-0.77585 -1.69797,-1.4792 -3.5193,-1.56455 l -1.58721,-0.0744 -0.0815,1.27733 c -0.0937,1.46905 0.24673,2.02823 1.23836,2.03401 0.38236,0.002 0.8738,0.11947 1.09208,0.26054 0.63875,0.41278 0.98325,0.31433 1.98845,-0.56824 z m -7.2348,-0.6634 c 1.0661,-0.96481 0.18854,-2.47253 -1.43913,-2.47253 -0.80217,0 -2.04577,1.02664 -2.04577,1.68887 0,1.14485 2.47163,1.70066 3.4849,0.78366 z m 10.12602,-3.82158 c 1.22662,-0.72373 1.28789,-1.78451 0.16776,-2.90464 -0.88298,-0.88298 -1.69852,-0.97394 -3.03184,-0.33812 -1.59977,0.76288 -1.53696,2.9768 0.0855,3.01369 0.22685,0.005 0.71011,0.17953 1.07391,0.38749 0.3638,0.20797 0.68442,0.38235 0.71248,0.3875 0.0281,0.005 0.47454,-0.24051 0.99219,-0.54592 z m 20.44082,11.64293 c -0.55305,-0.29186 -1.06028,-0.67355 -1.12717,-0.8482 -0.24567,-0.64144 -0.28671,-5.09512 -0.0513,-5.56616 0.32779,-0.65586 1.8831,-2.02554 2.05029,-1.80561 0.13566,0.17845 0.86598,0.5337 2.18423,1.06247 0.60075,0.24097 0.72761,0.4543 0.72761,1.22357 0,0.51244 0.113,0.93172 0.25111,0.93172 0.13812,0 0.56585,0.41263 0.95053,0.91696 l 0.6994,0.91697 -0.53765,0.75505 c -0.50689,0.71186 -3.54037,2.98085 -3.95139,2.95557 -0.10457,-0.006 -0.64263,-0.25048 -1.19568,-0.54234 z m 3.11464,-1.92124 c 0.8279,-0.60538 0.3322,-1.23262 -0.93489,-1.18297 -1.17396,0.046 -1.58075,0.49544 -1.03911,1.14807 0.40738,0.49087 1.32816,0.50714 1.974,0.0349 z m 5.48782,1.21522 c -0.61638,-0.20546 -1.22129,-0.57155 -1.34426,-0.81352 -0.12297,-0.24198 -0.42587,-1.51153 -0.67311,-2.82122 -0.24724,-1.30968 -0.55492,-2.73843 -0.68372,-3.175 -0.25431,-0.86193 0.162,-2.94419 0.72403,-3.62139 0.46158,-0.55618 1.12703,-2.22557 1.12703,-2.82737 0,-0.28194 -0.40599,-0.99856 -0.90219,-1.59248 -0.99465,-1.19051 -1.00333,-1.75422 -0.0409,-2.65834 0.99084,-0.93084 6.87062,-2.36252 8.26521,-2.0125 0.38055,0.0955 0.78129,0.57536 1.12002,1.34113 0.49588,1.12101 0.50254,1.25948 0.11115,2.31293 -0.55162,1.48469 -0.50809,1.92319 0.29547,2.97672 0.88532,1.1607 0.86581,2.03831 -0.0627,2.81957 -0.70414,0.5925 -0.73733,0.72338 -0.70501,2.78024 0.0316,2.00837 -0.009,2.18149 -0.58434,2.48937 -0.76462,0.4092 -1.67589,1.90795 -1.67589,2.75628 0,0.8091 -1.50984,1.99119 -2.85821,2.23776 -0.61979,0.11333 -1.41233,0.0412 -2.11259,-0.19218 z m 3.35678,-1.59069 c 0.74819,-0.55861 1.6304,-3.29425 1.419,-4.40016 -0.074,-0.38692 -0.59612,-1.14094 -1.16036,-1.6756 -1.17721,-1.11552 -1.22767,-1.34318 -0.48703,-2.19715 0.82594,-0.95231 0.28317,-2.89926 -0.80825,-2.89926 -0.974,0 -3.71593,4.27367 -3.72296,5.80275 -0.0142,3.09619 0.61191,5.0951 1.83013,5.84252 0.59851,0.36721 2.13668,0.1188 2.92947,-0.4731 z m 0.81065,-16.05537 c 0.44328,-0.53413 0.0851,-0.99589 -0.60796,-0.78372 -0.78079,0.23903 -1.25874,0.65115 -1.08368,0.9344 0.22969,0.37165 1.34024,0.27273 1.69164,-0.15068 z m -11.98236,9.15375 c -0.26543,-0.10459 -0.50355,-0.30458 -0.52916,-0.44442 -0.0256,-0.13984 -0.50253,-0.26704 -1.05982,-0.28266 -1.45749,-0.0409 -2.16184,-0.83154 -2.16143,-2.42634 5.3e-4,-1.72594 0.53293,-2.84808 1.58941,-3.34941 0.66285,-0.31455 1.05205,-0.3517 1.58031,-0.15086 0.38548,0.14656 1.28179,0.26647 1.99181,0.26647 1.71141,0 2.55185,0.72682 2.78668,2.40994 0.16724,1.19875 0.14593,1.24448 -1.26412,2.71198 -1.39506,1.45189 -1.90357,1.67122 -2.93368,1.2653 z m 1.84669,-2.03506 c 1.13125,-0.86284 1.11951,-1.5246 -0.0477,-2.69185 -0.86846,-0.86847 -1.02256,-0.92398 -2.24018,-0.80698 -1.76395,0.16949 -2.11887,0.51865 -2.11887,2.08444 0,1.18705 0.0557,1.29777 0.7276,1.44596 0.40018,0.0883 1.02526,0.25972 1.38906,0.38103 1.06144,0.35391 1.35438,0.30114 2.29013,-0.4126 z m -3.2771,-16.10667 c -0.45639,-0.38402 -0.95176,-1.08128 -1.10084,-1.54946 -0.32611,-1.02415 -0.48047,-4.17241 -0.22481,-4.58526 0.10028,-0.16193 0.72424,-0.44616 1.38658,-0.6316 0.66234,-0.18544 1.26933,-0.44246 1.34886,-0.57115 0.0795,-0.12869 0.37436,0.0365 0.65517,0.36702 0.4573,0.53832 0.49188,0.54581 0.33155,0.0718 -0.0985,-0.29104 -0.33681,-0.62438 -0.52969,-0.74075 -0.19287,-0.11638 -0.35068,-0.66117 -0.35068,-1.21066 0,-1.22068 -0.86368,-2.14895 -2.00143,-2.15111 -2.57958,-0.005 -3.80343,-1.24467 -4.01613,-4.06836 -0.14792,-1.96368 0.26957,-2.573016 1.40764,-2.05448 0.91545,0.41711 1.01856,0.39703 1.93907,-0.377529 0.4577,-0.385125 1.07003,-0.651073 1.40936,-0.612108 1.0603,0.121756 1.79066,-0.275378 1.79066,-0.973669 0,-0.435902 -0.14944,-0.644212 -0.46303,-0.645436 -0.25466,-10e-4 -0.7438,-0.414134 -1.08698,-0.918089 -0.54026,-0.793354 -0.58501,-1.028041 -0.33356,-1.749345 0.15972,-0.458187 0.22362,-1.099147 0.142,-1.424356 -0.16203,-0.645582 -0.3109,-0.595073 4.72447,-1.602924 1.70903,-0.34207 2.17626,-0.353834 2.76292,-0.06956 0.61122,0.296173 0.70901,0.510072 0.7281,1.59251 0.0253,1.432385 0.56751,2.031132 1.86045,2.054304 1.04408,0.01871 2.93204,0.888517 3.25901,1.501465 0.25729,0.482325 0.39824,1.407689 0.34215,2.246419 -0.0161,0.240893 -0.446,0.936768 -0.95533,1.546388 -0.82369,0.98589 -1.18877,1.85208 -0.78061,1.85208 0.08,0 0.49488,-0.18071 0.92198,-0.40157 0.4271,-0.22086 1.14484,-0.44445 1.59498,-0.49686 1.10246,-0.12836 1.43146,-0.49011 1.06629,-1.17244 -0.49234,-0.919936 -0.32725,-1.338488 0.74334,-1.884667 1.17244,-0.598132 1.32085,-0.513424 2.0162,1.150784 0.71384,1.708453 0.92284,3.372873 0.49943,3.977363 -0.20518,0.29295 -0.37306,0.92747 -0.37306,1.41005 0,0.65346 -0.25326,1.14167 -0.99219,1.91272 -1.41319,1.4746 -2.91186,1.58074 -5.16008,0.36547 -0.69036,-0.37317 -0.74062,-0.36129 -0.96462,0.22788 -0.12998,0.34186 -0.42732,0.78007 -0.66076,0.97381 -0.23344,0.19374 -0.42444,0.62559 -0.42444,0.95968 0,0.96793 -0.27479,1.43614 -1.09039,1.8579 -1.12151,0.57995 -1.05404,1.76094 0.16435,2.87694 1.07008,0.98015 1.15678,1.4653 0.35172,1.96807 -0.78563,0.49063 -4.10839,0.88827 -4.71404,0.56414 -0.36067,-0.19303 -0.56258,-0.13085 -0.83483,0.25709 -0.25765,0.36715 -0.8111,0.56029 -1.95905,0.68369 -1.4711,0.15813 -1.66678,0.11575 -2.42973,-0.52623 z m 7.98713,-1.72095 c 0.19567,-0.31661 -0.30205,-0.6303 -0.65447,-0.4125 -0.2959,0.18288 -0.10165,0.6588 0.2689,0.6588 0.12834,0 0.30185,-0.11084 0.38557,-0.2463 z m -2.81877,-2.29898 c 0.0726,-0.74557 -0.024,-0.86724 -0.99755,-1.25677 -0.59283,-0.23721 -1.1404,-0.43129 -1.21681,-0.43129 -0.13379,0 0.0747,1.6168 0.30073,2.33201 0.0689,0.21794 0.43131,0.31664 0.97157,0.26458 0.74978,-0.0723 0.87215,-0.19028 0.94206,-0.90853 z m 3.20473,-2.59118 c 0.76764,-0.79201 0.84477,-0.99546 0.62682,-1.65365 -0.13669,-0.41278 -0.63812,-1.01451 -1.1143,-1.33717 -0.70668,-0.47885 -1.09188,-0.55721 -2.09627,-0.42647 -1.61857,0.2107 -1.89274,0.4682 -1.8879,1.77312 0.005,1.39548 0.17883,1.64627 1.45923,2.10738 1.61723,0.58241 2.06582,0.51343 3.01242,-0.46321 z m 8.37664,-4.02914 c 1.03516,-0.67826 1.23978,-1.26912 0.80218,-2.31644 -0.49512,-1.18498 -1.26697,-1.58484 -2.63651,-1.36583 -1.45516,0.23268 -2.02218,0.79589 -2.02218,2.00856 0,1.17311 0.27813,1.44174 1.85209,1.78883 0.65484,0.1444 1.22457,0.27531 1.26607,0.29089 0.0415,0.0156 0.37376,-0.16712 0.73835,-0.40601 z m -6.78156,-0.85073 c -0.008,-0.23909 -0.36681,-0.71296 -0.79724,-1.05304 l -0.7826,-0.61833 -0.89962,0.75062 c -1.41353,1.17941 -1.42178,1.48585 -0.0363,1.34758 0.64764,-0.0646 1.32229,-0.028 1.49923,0.0813 0.46234,0.28574 1.03361,1.7e-4 1.0165,-0.50813 z m -5.54161,-0.38735 c 1.32019,-0.46063 1.71979,-0.71943 1.71979,-1.11381 0,-0.4205 -0.26219,-0.5515 -1.44432,-0.72163 -1.79152,-0.25782 -2.53839,-0.72913 -2.73815,-1.7279 -0.10739,-0.53696 -0.40012,-0.87532 -0.95676,-1.10589 -0.70295,-0.29117 -0.91901,-0.26318 -1.74912,0.2266 -0.52091,0.30734 -1.10044,0.55881 -1.28785,0.55881 -0.60609,0 -1.15503,0.90124 -1.09452,1.79697 0.0855,1.26526 0.41464,1.46023 2.2422,1.32803 1.46285,-0.10581 1.68809,-0.0494 2.46708,0.61748 0.4715,0.40366 0.9168,0.73561 0.98956,0.73766 0.0728,0.002 0.9062,-0.26628 1.85209,-0.59632 z m 7.22472,-5.21364 c 0.91795,-0.722065 1.08652,-1.39579 0.58964,-2.356649 -0.55652,-1.076182 -1.66386,-1.618267 -2.95123,-1.444732 -2.32239,0.313051 -2.2173,0.220842 -2.2173,1.945623 0,1.736688 0.12028,1.887118 1.71979,2.150998 1.79496,0.29612 2.15451,0.25899 2.8591,-0.29524 z m -5.67935,-2.140642 c 0.18886,-0.302402 0.27632,-0.616873 0.19437,-0.698824 -0.21247,-0.21247 -1.21058,0.743341 -1.21058,1.159277 0,0.47835 0.59959,0.206673 1.01621,-0.460453 z m -1.39105,-1.632147 c 0.72606,-0.423297 1.74693,-1.277104 2.16558,-1.811189 0.29258,-0.373244 0.14331,-0.519057 -1.16601,-1.138989 -1.68663,-0.798583 -3.14226,-0.757393 -3.92829,0.11116 -0.52041,0.57505 -0.4427,1.854983 0.12856,2.11751 0.21828,0.100312 0.75406,0.369326 1.19063,0.597809 0.98453,0.515272 0.94332,0.512105 1.60953,0.123699 z M 148.0236,50.50528 c 0.0636,-0.67917 0.41009,-1.08552 0.74763,-0.87691 0.45714,0.28254 0.19096,1.07535 -0.36105,1.07535 -0.22285,0 -0.39681,-0.0893 -0.38658,-0.19844 z m -2.93057,-0.86646 c -0.21742,-0.13745 -0.82335,-0.25174 -1.3465,-0.25397 -1.17373,-0.005 -1.96034,-0.75945 -1.73363,-1.66275 0.26265,-1.04644 1.32241,-2.38847 2.08564,-2.64114 0.84167,-0.27864 1.92052,0.3513 2.85911,1.66942 0.55026,0.77277 0.55175,0.80418 0.0767,1.6127 -0.63645,1.08313 -1.42562,1.60175 -1.94129,1.27574 z m 0.37679,-1.47695 c 0.58622,-0.22495 0.52374,-1.35197 -0.0932,-1.68218 -1.26949,-0.6794 -2.08966,-0.12884 -1.76068,1.18191 0.16824,0.67035 0.89773,0.8672 1.85393,0.50027 z m -13.02056,-1.62534 c -0.28079,-0.40018 -0.59649,-1.19831 -0.70156,-1.77363 -0.20563,-1.12593 -1.02909,-2.91495 -1.466,-3.18497 -0.46654,-0.28834 -0.29387,-0.88091 0.53017,-1.81944 0.43919,-0.50021 0.93155,-1.29106 1.09414,-1.75746 0.34554,-0.99121 1.51051,-1.58481 3.1103,-1.58481 0.57817,0 1.12334,-0.1167 1.21149,-0.25932 0.0881,-0.14263 0.96517,-0.22693 1.94894,-0.18735 1.98505,0.0799 3.49757,0.78266 4.93347,2.29231 0.69819,0.73405 0.80968,1.0708 0.92604,2.79708 l 0.1323,1.96256 -0.78119,0.32353 c -0.42966,0.17794 -1.50122,1.0591 -2.38125,1.95814 l -1.60006,1.6346 -1.32292,-0.1231 c -0.7276,-0.0677 -1.68915,-0.34837 -2.13677,-0.62369 -0.84203,-0.51792 -1.53684,-0.29357 -1.26717,0.40917 0.11571,0.30153 -0.62954,0.65139 -1.40669,0.66037 -0.17199,0.002 -0.54245,-0.32381 -0.82324,-0.72399 z m 8.05484,-1.53702 c 0.59277,-0.59277 0.65553,-0.82115 0.50376,-1.83322 -0.16726,-1.11535 -0.14756,-1.15909 0.55907,-1.2411 0.67154,-0.0779 1.94016,-1.45615 1.94016,-2.10775 0,-0.44119 -1.88018,-2.29592 -2.74198,-2.70488 -0.48261,-0.22901 -1.64067,-0.44247 -2.57347,-0.47436 -2.31644,-0.0792 -3.88837,0.68877 -5.28807,2.58348 -1.12679,1.52527 -1.2805,2.30903 -0.60026,3.06068 0.62004,0.68514 1.05337,0.60747 2.23003,-0.3997 1.51901,-1.30022 3.95432,-1.91337 4.6875,-1.18019 0.46297,0.46297 0.38926,0.74083 -0.19654,0.74083 -0.75133,0 -2.34673,1.01426 -2.53665,1.61266 -0.2812,0.88599 0.12644,2.07991 0.75666,2.21613 0.62528,0.13514 1.69656,0.3114 2.23991,0.36851 0.18852,0.0198 0.64746,-0.26867 1.01988,-0.64109 z m 39.10626,0.1343 c -0.48222,-0.53284 -0.4769,-0.55426 0.28896,-1.16494 0.90888,-0.72472 1.70777,-0.5032 1.70777,0.47353 0,1.23039 -1.14892,1.62823 -1.99673,0.69141 z"
         id="path1126" />
      <path
         style="fill:#0ca81d;stroke-width:0.264583"
         d="m 130.09476,82.93136 c -1.24957,-0.60383 -1.97873,-4.43036 -0.98296,-5.15849 0.25601,-0.1872 1.02339,-0.41437 1.70527,-0.50482 1.19702,-0.15879 1.25932,-0.21156 1.80553,-1.52941 1.05347,-2.54167 0.55084,-3.17672 -1.12775,-1.42485 -1.92293,2.00688 -2.78983,1.86436 -4.08463,-0.67155 -0.48582,-0.95151 -0.82706,-1.94779 -0.75829,-2.21396 0.10168,-0.39357 0.13076,-0.37391 0.15572,0.10528 0.0395,0.7584 1.15868,1.49411 2.02187,1.3291 0.36701,-0.0702 0.731,-0.0245 0.80887,0.10154 0.2749,0.44479 1.17923,0.22102 1.74733,-0.43236 0.731,-0.84073 0.87837,-0.83086 1.97534,0.1323 0.49721,0.43656 1.19051,0.79375 1.54066,0.79375 0.76867,0 0.95581,0.25042 0.75654,1.01241 -0.0862,0.32944 -0.35985,0.57509 -0.64077,0.57509 -0.44949,0 -1.65197,1.30279 -1.72993,1.87425 -0.0182,0.13332 -0.048,0.36147 -0.0662,0.507 -0.0185,0.14816 -0.85164,0.26458 -1.89346,0.26458 -2.14296,0 -2.2387,0.0985 -2.2399,2.30371 -8e-4,1.456 0.18772,1.72933 1.80121,2.61153 0.71484,0.39085 0.79918,0.36973 2.17739,-0.54507 1.77001,-1.17486 2.87669,-2.55104 2.64317,-3.28681 -0.13482,-0.42479 0.0416,-0.63621 0.89368,-1.0709 0.58392,-0.2979 1.28517,-0.54163 1.55834,-0.54163 0.78658,0 2.69941,2.20976 2.69941,3.11845 0,0.70377 0.6729,1.64405 1.17654,1.64405 0.11485,0 0.61563,-0.35719 1.11285,-0.79375 0.49721,-0.43656 1.16777,-0.79478 1.49013,-0.79604 0.32236,-0.001 1.00283,-0.39729 1.51215,-0.88006 0.50932,-0.48277 1.28323,-1.04811 1.71979,-1.25632 0.60096,-0.2866 0.81377,-0.58541 0.87618,-1.23019 0.0794,-0.82053 0.46482,-1.21478 2.03538,-2.08212 0.29041,-0.16038 0.5692,-0.5771 0.61952,-0.92604 0.0503,-0.34894 0.20356,-0.77101 0.34053,-0.93793 0.13696,-0.16692 0.36996,-1.23848 0.51776,-2.38125 0.14781,-1.14277 0.43766,-3.26838 0.64412,-4.72359 l 0.37537,-2.64583 -0.11826,2.11666 c -0.1454,2.60229 -0.60399,7.63643 -0.80072,8.78981 -0.0955,0.55967 -0.68681,1.42129 -1.72232,2.5095 -0.86731,0.91146 -1.57693,1.74631 -1.57693,1.85522 0,0.10891 -0.59938,0.50175 -1.33195,0.87297 -0.73258,0.37122 -2.04227,1.38526 -2.91042,2.25341 -0.91898,0.91899 -1.80898,1.57847 -2.13021,1.57847 -0.66848,0 -2.03304,-1.47708 -2.75555,-2.98277 -1.00841,-2.1015 -2.76813,-2.14477 -3.35537,-0.0825 -0.41163,1.44552 -0.88764,1.95227 -2.17781,2.31842 -0.59477,0.16879 -1.19451,0.40589 -1.33276,0.52688 -0.34879,0.30526 -2.27254,0.24309 -2.97451,-0.0961 z m 42.78108,-1.66827 c -0.18116,-0.21828 -0.53655,-0.39687 -0.78977,-0.39687 -0.25321,0 -0.90985,-0.35719 -1.45919,-0.79375 -0.54934,-0.43656 -1.13585,-0.79375 -1.30335,-0.79375 -0.16751,0 -0.75472,-0.22951 -1.30493,-0.51002 l -1.00038,-0.51002 -1.89237,0.90689 c -2.21366,1.06087 -2.27522,1.06741 -3.6151,0.38385 -1.42472,-0.72683 -1.66813,-1.62369 -1.52792,-5.6297 l 0.1134,-3.23996 -0.82009,-1.19062 c -0.74342,-1.07932 -0.82009,-1.38158 -0.82009,-3.23312 0,-1.77254 0.0797,-2.12223 0.60266,-2.64583 0.55824,-0.55887 0.83984,-0.60508 3.8198,-0.62686 3.09789,-0.0226 3.23236,-0.0472 3.62799,-0.66146 1.25605,-1.95033 2.88352,-2.75461 7.4619,-3.68763 3.78536,-0.7714 3.9782,-0.72472 4.40075,1.06531 0.18893,0.80037 0.28613,2.01959 0.216,2.70939 -0.10474,1.03017 0.012,1.51937 0.65346,2.73885 0.42954,0.81657 0.78098,1.59502 0.78098,1.72991 0,0.13488 -0.42161,1.1337 -0.93691,2.21959 -0.87136,1.83622 -0.91631,2.05321 -0.64239,3.10133 0.16199,0.61984 0.43477,1.24647 0.60618,1.39252 0.64216,0.54713 0.39485,0.93133 -1.14333,1.77622 -0.86979,0.47776 -1.58285,1.02258 -1.58458,1.21071 -0.002,0.18814 -0.5622,0.93975 -1.2455,1.67026 -1.18231,1.26398 -1.22748,1.36762 -0.93439,2.1441 0.16939,0.44875 0.24517,0.91753 0.16841,1.04173 -0.22378,0.36208 -1.073,0.26058 -1.43124,-0.17107 z m -8.19439,-2.56131 c 0.88649,-0.60835 1.85374,-1.44587 2.14945,-1.86116 l 0.53765,-0.75505 -0.6994,-0.91697 c -0.38468,-0.50433 -0.81241,-0.91696 -0.95053,-0.91696 -0.13811,0 -0.25111,-0.41928 -0.25111,-0.93172 0,-0.76927 -0.12686,-0.9826 -0.72761,-1.22357 -1.31825,-0.52877 -2.04857,-0.88402 -2.18423,-1.06247 -0.16719,-0.21993 -1.7225,1.14975 -2.05029,1.80561 -0.23543,0.47104 -0.19439,4.92472 0.0513,5.56616 0.11328,0.29577 1.89846,1.36444 2.32285,1.39054 0.10457,0.006 0.91545,-0.48605 1.80194,-1.09441 z m 9.64249,-0.85491 c 0.60935,-0.46478 0.93315,-0.93135 0.93315,-1.34462 0,-0.84833 0.91127,-2.34708 1.67589,-2.75628 0.57527,-0.30788 0.6159,-0.481 0.58434,-2.48937 -0.0323,-2.05686 8e-4,-2.18774 0.70501,-2.78024 0.92847,-0.78126 0.94798,-1.65887 0.0627,-2.81957 -0.80356,-1.05353 -0.84709,-1.49203 -0.29547,-2.97672 0.39139,-1.05345 0.38473,-1.19192 -0.11115,-2.31293 -0.33873,-0.76577 -0.73947,-1.24562 -1.12002,-1.34113 -1.39459,-0.35002 -7.27437,1.08166 -8.26521,2.0125 -0.9624,0.90412 -0.95372,1.46783 0.0409,2.65834 0.4962,0.59392 0.90219,1.31054 0.90219,1.59248 0,0.6018 -0.66545,2.27119 -1.12703,2.82737 -0.56203,0.6772 -0.97834,2.75946 -0.72403,3.62139 0.1288,0.43657 0.43648,1.86532 0.68372,3.175 0.24724,1.30969 0.55014,2.57924 0.67311,2.82122 0.33177,0.65286 2.28262,1.22042 3.45685,1.0057 0.54555,-0.0998 1.41182,-0.50168 1.92506,-0.89314 z m -8.9189,-9.05665 c 1.41005,-1.4675 1.43136,-1.51323 1.26412,-2.71198 -0.23483,-1.68312 -1.07527,-2.40994 -2.78668,-2.40994 -0.71002,0 -1.60633,-0.11991 -1.99181,-0.26647 -0.52826,-0.20084 -0.91746,-0.16369 -1.58031,0.15086 -1.05648,0.50133 -1.58898,1.62347 -1.58941,3.34941 -5.3e-4,1.5948 0.70394,2.38548 2.16143,2.42634 0.55729,0.0156 1.03421,0.14282 1.05982,0.28266 0.0554,0.30266 0.81084,0.62724 1.52019,0.65319 0.28785,0.0105 1.13064,-0.62898 1.94265,-1.47407 z m 2.44372,-1.84585 c 0,-0.21829 -0.11907,-0.3233 -0.26459,-0.23336 -0.14552,0.0899 -0.26458,0.34211 -0.26458,0.5604 0,0.21828 0.11906,0.32329 0.26458,0.23335 0.14552,-0.0899 0.26459,-0.34211 0.26459,-0.56039 z m -29.69948,8.42604 c -0.66058,-0.14159 -0.57837,-0.47695 0.37324,-1.5227 1.3764,-1.51257 2.31871,-1.08354 1.42329,0.64802 -0.39604,0.76586 -0.97933,1.04985 -1.79653,0.87468 z m -10.5319,-6.22945 c 0.57483,-0.74035 1.73419,-1.23932 2.87959,-1.23932 1.20273,0 1.59776,-0.37133 1.81424,-1.70539 0.19018,-1.17189 1.1559,-1.99878 2.33439,-1.99878 0.4712,0 1.43741,-0.25737 2.14713,-0.57193 0.87,-0.3856 1.9642,-0.59933 3.35859,-0.65602 1.55466,-0.0632 2.2546,-0.21683 2.81897,-0.6187 0.41293,-0.29403 0.97878,-0.5346 1.25746,-0.5346 0.27868,0 1.13987,-0.47242 1.91376,-1.04982 1.46646,-1.09412 2.33386,-1.45214 4.11245,-1.69739 1.36852,-0.1887 0.23846,0.23835 -1.32291,0.49993 -0.84947,0.14232 -1.4108,0.53642 -2.84427,1.99694 -1.50037,1.52868 -1.78594,1.96399 -1.78594,2.72238 0,1.00453 -0.48467,1.58667 -1.03687,1.24539 -0.31523,-0.19482 -0.30436,-0.74771 0.0331,-1.68408 0.0742,-0.20591 -2.39627,-0.46277 -4.22733,-0.43952 -2.1615,0.0274 -3.13442,1.24428 -2.88981,3.61426 0.15646,1.51597 0.14093,1.54399 -0.62775,1.1326 -0.37491,-0.20064 -0.51178,-0.55666 -0.51178,-1.33122 0,-0.69973 -0.13536,-1.10927 -0.40024,-1.21092 -0.50016,-0.19193 -1.25554,0.40436 -1.08273,0.8547 0.0707,0.18433 -0.0429,0.47749 -0.25254,0.65147 -0.20964,0.17398 -0.38298,0.56963 -0.3852,0.87924 -0.009,1.19503 -0.37051,1.34642 -1.69082,0.70727 -1.03306,-0.5001 -1.35033,-0.54601 -2.061,-0.29827 -0.46199,0.16105 -1.08378,0.49969 -1.38177,0.75253 -0.51849,0.43995 -0.52574,0.43906 -0.16874,-0.0207 z m 25.46629,-7.9862 c 0.005,-0.43656 0.0647,-0.58313 0.13177,-0.32569 0.0671,0.25743 0.0627,0.61462 -0.01,0.79375 -0.0725,0.17913 -0.12737,-0.0315 -0.12197,-0.46806 z m -1.10991,-2.24896 c -0.61576,-0.1972 -0.62141,-0.21366 -0.0818,-0.23821 0.31884,-0.0145 0.65329,0.0927 0.74322,0.23821 0.0899,0.14552 0.12673,0.25272 0.0818,0.23821 -0.045,-0.0145 -0.37941,-0.1217 -0.74321,-0.23821 z m 9.33198,-6.27143 c -0.9196,-0.17764 -1.90736,-1.86313 -2.32014,-3.95903 -0.25442,-1.29182 0.30934,-2.88201 1.46155,-4.12254 1.48383,-1.59759 1.44279,-3.07883 -0.0804,-2.9032 -0.46878,0.0541 -1.16804,-0.0224 -1.55392,-0.16987 -0.85683,-0.32747 -1.97041,-1.74002 -2.21884,-2.81455 -0.14999,-0.64875 -0.0657,-0.57625 0.46136,0.39687 0.69817,1.28902 1.66316,1.80965 3.40515,1.83715 1.25475,0.0198 2.09664,0.90386 2.09664,2.20165 0,0.5291 0.15781,1.0572 0.35068,1.17358 0.19288,0.11637 0.43123,0.44971 0.52969,0.74075 0.16033,0.47397 0.12575,0.46648 -0.33155,-0.0718 -0.28081,-0.33055 -0.57563,-0.49571 -0.65517,-0.36702 -0.0795,0.12869 -0.68826,0.38619 -1.35274,0.57224 -0.66448,0.18604 -1.30368,0.52979 -1.42046,0.76389 -0.33585,0.67329 0.0895,4.39946 0.58927,5.16221 0.81866,1.24944 1.57597,1.55459 3.34774,1.34895 1.17919,-0.13686 1.66916,-0.31813 1.86896,-0.69147 0.21133,-0.39486 0.37906,-0.44804 0.76379,-0.24214 0.62231,0.33305 3.93079,-0.055 4.7313,-0.5549 0.80506,-0.50277 0.71836,-0.98792 -0.35172,-1.96807 -1.21839,-1.116 -1.28586,-2.29699 -0.16435,-2.87694 0.8156,-0.42176 1.09039,-0.88997 1.09039,-1.8579 0,-0.33409 0.191,-0.76594 0.42444,-0.95968 0.23344,-0.19374 0.53078,-0.63195 0.66076,-0.97381 0.224,-0.58917 0.27426,-0.60105 0.96462,-0.22788 2.24822,1.21527 3.74689,1.10913 5.16008,-0.36547 0.73893,-0.77105 0.99219,-1.25926 0.99219,-1.91272 0,-0.48258 0.16788,-1.1171 0.37306,-1.41005 0.42341,-0.60449 0.21441,-2.26891 -0.49943,-3.977366 -0.69535,-1.664208 -0.84376,-1.748916 -2.0162,-1.150784 -1.07059,0.546179 -1.23568,0.964731 -0.74334,1.88467 0.36517,0.68233 0.0362,1.04408 -1.06629,1.17244 -0.45014,0.0524 -1.16788,0.276 -1.59498,0.49686 -0.4271,0.22086 -0.84199,0.40157 -0.92198,0.40157 -0.40816,0 -0.0431,-0.86619 0.78061,-1.85208 0.50933,-0.60962 0.93922,-1.305498 0.95533,-1.546391 0.0561,-0.83873 -0.0849,-1.764094 -0.34215,-2.246419 -0.32697,-0.612948 -2.21493,-1.482753 -3.25901,-1.501465 -1.29294,-0.02317 -1.83519,-0.621919 -1.86045,-2.054304 -0.0191,-1.082438 -0.11688,-1.296336 -0.7281,-1.59251 -0.58666,-0.284271 -1.05389,-0.272507 -2.76292,0.06956 -5.03537,1.007851 -4.8865,0.957342 -4.72447,1.602924 0.0816,0.325209 0.0177,0.966169 -0.142,1.424356 -0.25145,0.721304 -0.2067,0.955991 0.33356,1.749345 0.34318,0.503955 0.83232,0.917094 1.08698,0.918089 0.31359,0.0012 0.46303,0.209534 0.46303,0.645436 0,0.698291 -0.73036,1.095425 -1.79066,0.973669 -0.33933,-0.03897 -0.95166,0.226983 -1.40936,0.612108 -0.92051,0.774562 -1.02362,0.794642 -1.93907,0.377532 -0.40715,-0.18551 -0.80254,-0.21122 -1.01711,-0.0661 -0.19307,0.13054 -0.12388,0.029 0.15377,-0.22568 0.27764,-0.254665 0.7595,-0.468189 1.0708,-0.474499 0.3113,-0.0063 1.04225,-0.285422 1.62433,-0.620243 l 1.05834,-0.608766 -0.0929,-1.959446 c -0.0561,-1.182408 -0.23969,-2.125091 -0.46302,-2.377154 -0.20355,-0.229739 -0.37009,-0.542716 -0.37009,-0.695504 0,-0.593001 2.47442,-1.24846 6.41471,-1.699217 2.83014,-0.32376 2.84579,-0.322432 3.50573,0.297542 0.36459,0.342515 0.66289,0.877206 0.66289,1.188202 0,0.954352 0.93684,1.689219 2.40112,1.883463 1.37936,0.182977 1.30094,0.119949 3.17907,2.555235 0.38144,0.494589 0.5294,0.518094 1.58102,0.251164 1.37158,-0.348145 1.93673,-0.0084 2.20332,1.324606 0.0907,0.453353 0.44026,1.191407 0.77685,1.640127 0.3366,0.44871 0.88415,1.6723 1.21679,2.71908 0.50805,1.59877 0.57442,2.20572 0.41491,3.79409 -0.2116,2.10694 -0.59763,3.74861 -0.63784,2.7125 -0.0376,-0.96865 -0.82898,-1.17915 -1.73051,-0.4603 -0.76586,0.61068 -0.77118,0.6321 -0.28896,1.16494 0.55256,0.61059 1.20626,0.6983 1.67923,0.22533 0.24694,-0.24695 0.3175,-0.24395 0.3175,0.0135 0,0.18205 -0.42799,0.50983 -0.95109,0.72839 -0.84836,0.35447 -1.01766,0.35377 -1.56743,-0.006 -0.33899,-0.22211 -0.69293,-0.64514 -0.78653,-0.94006 -0.21664,-0.68255 -1.85186,-0.73031 -3.67981,-0.10747 -1.48764,0.50689 -1.66962,0.84631 -1.20636,2.25003 0.39806,1.20612 0.55188,1.33573 1.83223,1.54385 1.01128,0.16437 1.22854,0.69394 0.47874,1.1669 -0.33255,0.20977 -0.6856,0.20127 -1.30185,-0.0313 -0.81104,-0.30613 -0.89682,-0.27123 -2.10055,0.85471 -1.40936,1.3183 -1.39128,1.31259 -5.40173,1.70511 -2.9089,0.2847 -4.50645,0.31259 -5.61697,0.0981 z m 19.77218,-12.00043 c 0,-1.05611 -0.33912,-1.39044 -0.63315,-0.62421 -0.21049,0.54854 -0.20558,1.56498 0.009,1.77916 0.35267,0.35267 0.62456,-0.1501 0.62456,-1.15495 z m -38.37923,10.08683 c -0.44193,-0.71823 -1.00616,-1.34489 -1.25385,-1.3926 -0.24769,-0.0477 -0.45056,-0.31301 -0.45082,-0.58958 -7.9e-4,-0.97487 -0.59135,-0.69913 -0.7599,0.35488 -0.22177,1.38686 -0.81376,1.72085 -1.66003,0.93655 -0.36083,-0.3344 -0.8504,-0.54028 -1.11824,-0.47023 -0.26796,0.0701 -0.81476,-0.16012 -1.24973,-0.52612 -0.86874,-0.731 -2.56808,-1.50495 -3.30437,-1.50495 -0.78376,0 -1.45963,-0.96045 -1.81968,-2.58587 -0.40779,-1.84095 -0.6716,-2.36716 -1.6419,-3.27497 -0.94346,-0.88271 -0.94989,-1.42367 -0.0221,-1.86379 0.41135,-0.19514 0.98713,-0.85986 1.3247,-1.52933 0.64811,-1.28533 0.96093,-1.50343 3.55889,-2.4813 1.55928,-0.58691 1.92281,-0.62767 3.7603,-0.4216 1.47904,0.16586 2.40932,0.44288 3.40893,1.01509 2.18663,1.25172 2.71801,1.97789 3.33925,4.56335 0.30199,1.25681 0.54907,2.52673 0.54907,2.82203 0,0.31095 0.44858,0.89221 1.06583,1.38108 0.5862,0.46428 1.5387,1.31232 2.11667,1.88454 0.91753,0.9084 1.05083,1.19271 1.05083,2.24114 0,0.97524 -0.14571,1.34647 -0.77587,1.97662 -0.67739,0.6774 -0.85785,0.73852 -1.42174,0.4816 -0.47144,-0.21481 -0.79311,-0.21548 -1.19111,-0.002 -0.29988,0.1604 -1.03041,0.29172 -1.62341,0.29172 -1.00701,0 -1.13121,-0.0862 -1.88168,-1.30587 z m 6.27921,-0.44063 c 0.0895,-0.23328 -0.003,-0.5261 -0.20667,-0.65177 -0.33754,-0.20861 -0.68398,0.19774 -0.74763,0.87691 -0.0363,0.38748 0.79443,0.19149 0.9543,-0.22514 z m -1.94358,-1.91706 c 0.47508,-0.80852 0.47359,-0.83993 -0.0767,-1.6127 -0.93859,-1.31812 -2.01744,-1.94806 -2.85911,-1.66942 -0.76323,0.25267 -1.82299,1.5947 -2.08564,2.64114 -0.22671,0.9033 0.5599,1.65776 1.73363,1.66275 0.52315,0.002 1.12908,0.11652 1.3465,0.25397 0.51567,0.32601 1.30484,-0.19261 1.94129,-1.27574 z m -12.83883,-1.26962 c 0.33995,-0.091 0.55421,-0.30957 0.4837,-0.49331 -0.26967,-0.70274 0.42514,-0.92709 1.26717,-0.40917 0.44762,0.27532 1.40917,0.55598 2.13677,0.62369 l 1.32292,0.1231 1.60006,-1.6346 c 0.88003,-0.89904 1.95159,-1.7802 2.38125,-1.95814 l 0.78119,-0.32353 -0.1323,-1.96256 c -0.11636,-1.72628 -0.22785,-2.06303 -0.92604,-2.79708 -1.4359,-1.50965 -2.94842,-2.21243 -4.93347,-2.29231 -0.98377,-0.0396 -1.86079,0.0447 -1.94894,0.18735 -0.0882,0.14262 -0.63332,0.25932 -1.21149,0.25932 -1.59979,0 -2.76476,0.5936 -3.1103,1.58481 -0.16259,0.4664 -0.65495,1.25725 -1.09414,1.75746 -0.82403,0.93853 -0.99671,1.5311 -0.53016,1.81944 0.4369,0.27002 1.26036,2.05904 1.46599,3.18497 0.21036,1.15183 1.03542,2.50328 1.5248,2.49762 0.172,-0.002 0.58734,-0.0772 0.92299,-0.16706 z m 9.25273,-2.35787 c 0.71043,-0.49761 0.76116,-0.91104 0.11178,-0.91104 -0.55714,0 -1.11125,0.48814 -1.11125,0.97896 0,0.45337 0.28265,0.43416 0.99947,-0.0679 z m 20.84746,3.80222 c -0.22602,-0.71521 -0.43452,-2.33201 -0.30073,-2.33201 0.0764,0 0.62398,0.19408 1.21681,0.43129 0.97354,0.38953 1.07011,0.5112 0.99755,1.25677 -0.0699,0.71825 -0.19228,0.83627 -0.94206,0.90853 -0.54026,0.0521 -0.9027,-0.0466 -0.97157,-0.26458 z m 5.69694,-7.60687 c -0.17694,-0.10935 -0.85159,-0.14593 -1.49923,-0.0813 -1.38551,0.13827 -1.37726,-0.16817 0.0363,-1.34758 l 0.89962,-0.75062 0.7826,0.61833 c 0.43043,0.34008 0.78918,0.81395 0.79724,1.05304 0.0171,0.5083 -0.55416,0.79387 -1.0165,0.50813 z m -13.6865,-3.57995 c -0.0819,-0.21348 -0.0979,-0.5409 -0.0355,-0.7276 0.0624,-0.18671 0.17619,-0.012 0.25285,0.38814 0.14969,0.78137 0.0262,0.97421 -0.21737,0.33946 z m 9.69055,-4.209359 c 0,-0.415936 0.99811,-1.371747 1.21058,-1.159277 0.19759,0.197585 -0.44727,1.213932 -0.87416,1.377744 -0.18503,0.071 -0.33642,-0.02731 -0.33642,-0.218467 z m -20.80886,-0.163225 c -1.31513,-0.530624 -0.81481,-1.58927 0.7511,-1.58927 0.5991,0 0.74318,0.117975 0.74318,0.608541 0,0.565257 -0.44545,1.265387 -0.78052,1.226771 -0.08,-0.0092 -0.40123,-0.119943 -0.71376,-0.246042 z"
         id="path1124" />
      <path
         style="fill:#0f9521;stroke-width:0.264583"
         d="m 143.34557,85.20648 c -0.56601,-0.37774 -1.50536,-1.13775 -2.08744,-1.68889 -1.23575,-1.17006 -1.76276,-1.45954 -3.09456,-1.69981 -0.8065,-0.14551 -1.02619,-0.0862 -1.25343,0.3384 -0.50418,0.94207 -1.9529,1.5999 -3.9276,1.78343 -1.80974,0.1682 -1.9343,0.14173 -3.22185,-0.68448 -0.75831,-0.48661 -1.38819,-1.10512 -1.45195,-1.42575 -0.3242,-1.63016 -0.37346,-2.31898 -0.22935,-3.20699 0.16548,-1.01973 0.75731,-1.44807 2.59541,-1.87844 0.72293,-0.16926 0.65212,-0.21285 -0.79375,-0.4885 -1.99516,-0.38037 -2.01017,-0.39057 -2.74918,-1.87029 -0.89236,-1.78679 -0.98465,-2.99839 -0.33947,-4.45693 0.46033,-1.04064 0.77175,-1.33697 2.05683,-1.95718 1.15345,-0.55668 1.7213,-1.04617 2.38258,-2.05379 1.79924,-2.74156 2.08494,-2.98065 3.74739,-3.13607 0.83404,-0.078 2.32499,-0.15495 3.31323,-0.17106 2.08114,-0.0339 5.32947,-0.99288 6.93445,-2.04715 1.49078,-0.97925 4.36621,-1.95044 4.88156,-1.64876 0.31611,0.18505 0.24138,0.24192 -0.326,0.24812 -1.02651,0.0112 -2.34904,0.60794 -3.79586,1.71267 -0.67797,0.51766 -1.46506,0.94121 -1.74909,0.94121 -0.28403,0 -0.85427,0.24057 -1.2672,0.5346 -0.56437,0.40187 -1.26431,0.55548 -2.81897,0.6187 -1.39439,0.0567 -2.48859,0.27042 -3.35859,0.65602 -0.70972,0.31456 -1.67593,0.57193 -2.14713,0.57193 -1.17849,0 -2.14421,0.82689 -2.33439,1.99878 -0.21905,1.34986 -0.60793,1.70523 -1.86725,1.70638 -0.62895,5.2e-4 -1.46438,0.22797 -1.96997,0.53622 -1.05179,0.64125 -2.02804,2.62172 -1.77983,3.61064 0.29149,1.16142 1.73241,3.46354 2.25307,3.59969 0.70671,0.18481 1.85036,-0.46144 2.80643,-1.58585 0.81493,-0.95842 1.43468,-1.01541 1.43468,-0.13192 0,0.24326 -0.25458,1.05651 -0.56574,1.80723 -0.54621,1.31785 -0.60851,1.37062 -1.80553,1.52941 -1.76751,0.23447 -2.17074,0.61135 -2.17074,2.02893 0,1.58981 0.70495,3.27583 1.5261,3.64998 0.76888,0.35032 2.53256,0.39935 2.89685,0.0805 0.13824,-0.12099 0.73798,-0.35809 1.33276,-0.52688 1.29017,-0.36615 1.76618,-0.8729 2.1778,-2.31842 0.58725,-2.06226 2.34696,-2.01899 3.35537,0.0825 0.72251,1.50569 2.08707,2.98277 2.75555,2.98277 0.32123,0 1.21123,-0.65948 2.13021,-1.57847 0.86815,-0.86815 2.17784,-1.88219 2.91042,-2.25341 0.73257,-0.37122 1.33195,-0.76406 1.33195,-0.87297 0,-0.10891 0.70448,-0.93836 1.56551,-1.84321 0.86102,-0.90485 1.63155,-1.9746 1.71227,-2.37721 0.18765,-0.93593 0.6867,-6.23206 0.94158,-9.99244 0.16825,-2.48209 0.20326,-2.63988 0.23792,-1.07215 0.0426,1.92545 -0.35495,7.87522 -0.75174,11.25172 -0.20187,1.7178 -0.33495,2.06527 -1.01336,2.64584 -0.42954,0.36759 -1.10921,1.24405 -1.51037,1.94769 -0.50325,0.8827 -1.02511,1.40541 -1.68321,1.68595 -0.5246,0.22363 -1.16055,0.51112 -1.41324,0.63888 -0.25269,0.12775 -0.68299,0.23228 -0.95623,0.23228 -0.39044,0 -0.53281,0.26279 -0.66504,1.22755 -0.0925,0.67516 -0.16826,1.55539 -0.16826,1.95607 0,0.42023 -0.1771,0.79647 -0.41851,0.88911 -0.55188,0.21178 -0.42812,0.25261 -1.59509,-0.52622 z m 29.6156,-1.93794 c -0.89896,-0.23843 -1.87655,-0.65258 -2.17242,-0.92035 -0.4259,-0.38543 -0.77711,-0.45098 -1.68603,-0.31467 -1.1157,0.1673 -1.16063,0.14581 -1.59361,-0.76216 -0.50399,-1.05688 -1.3399,-1.22805 -2.65287,-0.54322 -0.6399,0.33376 -0.97188,0.33814 -2.38125,0.0314 -3.14888,-0.68534 -2.92927,-0.38172 -3.29861,-4.56061 -0.35192,-3.98172 -0.47391,-4.83808 -0.86228,-6.05271 -0.14036,-0.43897 -0.28156,-2.32625 -0.31378,-4.19395 -0.0707,-4.09859 0.0398,-4.27512 2.50026,-3.99402 1.29436,0.14788 1.65553,0.0865 2.47652,-0.4209 0.52864,-0.32672 1.25161,-0.62592 1.6066,-0.66488 0.35499,-0.039 1.20508,-0.25382 1.8891,-0.47745 6.24959,-2.04317 8.07149,-2.54754 9.20235,-2.54754 0.37129,0 0.90292,-0.12194 1.1814,-0.27099 0.65102,-0.34841 1.78372,-0.0642 2.1001,0.52697 0.13531,0.25283 0.30292,1.79533 0.37246,3.42778 0.11846,2.78081 0.17095,3.01262 0.83188,3.67354 0.63901,0.63902 0.6935,0.84707 0.57869,2.20949 -0.0782,0.92842 -0.0125,1.62032 0.17189,1.80787 0.22279,0.22665 0.10525,0.47131 -0.46276,0.96325 l -0.76141,0.65944 0.72536,0.75712 c 0.98695,1.03015 1.14139,2.78585 0.32187,3.65898 -0.31615,0.33682 -0.99332,0.80936 -1.50482,1.05009 -1.13734,0.53526 -3.24154,1.91267 -3.50223,2.29256 -0.10502,0.15305 -0.16456,1.21546 -0.13229,2.36091 0.0759,2.69277 -0.21368,2.94603 -2.63412,2.30406 z m 1.34591,-1.83438 c 0.0768,-0.1242 10e-4,-0.59298 -0.16841,-1.04173 -0.29309,-0.77648 -0.24792,-0.88012 0.93439,-2.1441 0.6833,-0.73051 1.24378,-1.48212 1.2455,-1.67026 0.002,-0.18813 0.71479,-0.73295 1.58458,-1.21071 1.53818,-0.84489 1.78549,-1.22909 1.14333,-1.77622 -0.17141,-0.14605 -0.44419,-0.77268 -0.60618,-1.39252 -0.27392,-1.04812 -0.22897,-1.26511 0.64239,-3.10133 0.5153,-1.08589 0.93691,-2.08471 0.93691,-2.21959 0,-0.13489 -0.35144,-0.91334 -0.78098,-1.72991 -0.64148,-1.21948 -0.7582,-1.70868 -0.65346,-2.73885 0.0701,-0.6898 -0.0271,-1.90902 -0.216,-2.70939 -0.42255,-1.79003 -0.61539,-1.83671 -4.40075,-1.06531 -4.57838,0.93302 -6.20585,1.7373 -7.4619,3.68763 -0.39563,0.6143 -0.5301,0.63882 -3.62799,0.66146 -2.97996,0.0218 -3.26156,0.068 -3.8198,0.62686 -0.52301,0.5236 -0.60266,0.87329 -0.60266,2.64583 0,1.85154 0.0767,2.1538 0.82009,3.23312 l 0.82009,1.19062 -0.1134,3.23996 c -0.14021,4.00601 0.1032,4.90287 1.52792,5.6297 1.33988,0.68356 1.40144,0.67702 3.6151,-0.38385 l 1.89237,-0.90689 1.00038,0.51002 c 0.55021,0.28051 1.13742,0.51002 1.30493,0.51002 0.1675,0 0.75401,0.35719 1.30335,0.79375 0.54934,0.43656 1.20598,0.79375 1.45919,0.79375 0.25322,0 0.60861,0.17859 0.78977,0.39687 0.35824,0.43165 1.20746,0.53315 1.43124,0.17107 z m -6.98749,-14.16275 c 0,-0.21829 0.11906,-0.47046 0.26458,-0.5604 0.14552,-0.0899 0.26459,0.0151 0.26459,0.23336 0,0.21828 -0.11907,0.47045 -0.26459,0.56039 -0.14552,0.0899 -0.26458,-0.0151 -0.26458,-0.23335 z m -14.4675,-7.7703 c -0.27407,-0.87864 -0.26634,-0.93341 0.0675,-0.47859 0.31585,0.43025 0.5348,1.47078 0.30948,1.47078 -0.0371,0 -0.20682,-0.44648 -0.37703,-0.99219 z m -1.98628,-0.77605 c 0.191,-0.0764 0.4192,-0.067 0.50712,0.0209 0.0879,0.0879 -0.0683,0.15045 -0.34726,0.13896 -0.30823,-0.0127 -0.37092,-0.0754 -0.15986,-0.15985 z m -10.23189,-5.6459 c -0.63435,-0.28785 -1.50138,-0.52336 -1.92672,-0.52336 -1.32313,0 -2.56912,-0.67571 -2.77317,-1.50392 -0.42185,-1.7122 -1.30685,-2.35396 -2.12203,-1.53879 -0.80676,0.80676 -1.23611,0.54039 -2.6956,-1.67235 -0.76251,-1.15604 -1.10306,-1.95654 -1.10306,-2.59283 0,-1.34949 -0.64202,-2.37047 -1.98585,-3.158 l -1.18915,-0.69689 0.004,-1.6285 c 0.005,-1.79512 0.13562,-2.12174 1.11364,-2.77333 0.36543,-0.24348 1.12665,-0.75934 1.6916,-1.14638 0.96598,-0.66177 1.12645,-0.68947 2.69387,-0.46492 1.34582,0.1928 1.8552,0.15582 2.64583,-0.19211 1.34059,-0.58994 3.13399,-0.6859 4.04216,-0.21626 0.41094,0.2125 1.04369,0.38637 1.40613,0.38637 0.36245,0 0.73646,0.12534 0.83114,0.27855 0.0947,0.1532 0.31007,0.22906 0.47864,0.16859 0.8511,-0.30535 3.19705,1.96274 3.232,3.12473 0.0249,0.82978 0.75281,2.52412 1.7049,3.96875 0.28772,0.43656 0.59671,0.94258 0.68664,1.12448 0.2468,0.4992 0.84653,0.39707 1.16523,-0.19844 0.22154,-0.41394 1.05259,-0.777 1.05987,-0.46302 7.9e-4,0.0364 0.13022,0.78052 0.28751,1.65365 0.40093,2.2256 0.53454,5.93217 0.23407,6.49359 -0.42697,0.79781 -1.96698,1.5762 -3.11842,1.5762 -0.5927,0 -1.15142,0.11938 -1.2416,0.2653 -0.10479,0.16956 -0.33149,0.17564 -0.6282,0.0169 -0.28496,-0.1525 -0.8663,-0.15522 -1.5053,-0.007 -1.44509,0.33513 -1.67898,0.31314 -2.98818,-0.28092 z m 5.56986,-1.34433 c 0.398,-0.213 0.71967,-0.21233 1.19111,0.002 0.56389,0.25693 0.74435,0.1958 1.42174,-0.48159 0.63016,-0.63016 0.77587,-1.00138 0.77587,-1.97662 0,-1.04843 -0.1333,-1.33274 -1.05083,-2.24115 -0.57796,-0.57221 -1.53046,-1.42025 -2.11667,-1.88454 -0.61725,-0.48887 -1.06583,-1.07012 -1.06583,-1.38107 0,-0.29531 -0.24708,-1.56522 -0.54907,-2.82204 -0.62124,-2.58545 -1.15262,-3.31162 -3.33925,-4.56334 -0.99961,-0.57221 -1.92989,-0.84923 -3.40893,-1.0151 -1.83749,-0.20607 -2.20103,-0.16531 -3.76031,0.42161 -2.59795,0.97786 -2.91077,1.19597 -3.55888,2.4813 -0.33757,0.66946 -0.91335,1.33419 -1.3247,1.52933 -0.92775,0.44011 -0.92132,0.98108 0.0221,1.86379 0.97029,0.90781 1.23411,1.43402 1.6419,3.27497 0.36005,1.62542 1.03592,2.58587 1.81968,2.58587 0.73629,0 2.43563,0.77395 3.30437,1.50495 0.43497,0.36599 0.98176,0.59619 1.24973,0.52611 0.26784,-0.07 0.75741,0.13583 1.11823,0.47024 0.84628,0.7843 1.43828,0.45031 1.66004,-0.93655 0.16855,-1.05401 0.75898,-1.32975 0.7599,-0.35488 2.6e-4,0.27657 0.20313,0.54188 0.45082,0.58958 0.24769,0.0477 0.81192,0.67437 1.25385,1.3926 0.75047,1.21967 0.87467,1.30586 1.88168,1.30586 0.593,0 1.32353,-0.13131 1.62341,-0.2918 z m -3.75503,-6.93132 c 0,-0.49082 0.55411,-0.97896 1.11125,-0.97896 0.64938,0 0.59865,0.41343 -0.11178,0.91104 -0.71682,0.50208 -0.99947,0.52129 -0.99947,0.0679 z m 17.11673,8.07334 c -0.75694,-0.83641 -1.1901,-2.2552 -1.35019,-4.42247 -0.086,-1.16396 -0.28395,-2.65207 -0.43992,-3.30691 -0.15598,-0.65484 -0.35097,-1.60687 -0.43332,-2.11561 -0.0824,-0.50873 -0.30273,-1.16358 -0.48975,-1.45521 -0.88486,-1.37978 -1.274,-7.703789 -0.51292,-8.335431 0.29868,-0.247884 0.48677,-0.25477 0.76021,-0.02783 0.36775,0.305197 1.22417,0.142428 1.22417,-0.232662 0,-0.112134 -0.17734,-0.351051 -0.39408,-0.530929 -0.34734,-0.288269 -0.3395,-0.420503 0.0661,-1.115176 0.25312,-0.43347 0.8174,-0.970862 1.25397,-1.194204 1.12021,-0.573096 1.11784,-0.562844 0.28467,-1.227187 -0.63793,-0.508666 -0.70864,-0.683257 -0.46279,-1.142629 0.43198,-0.807178 2.42628,-1.479121 5.33749,-1.798372 0.80037,-0.08777 1.75287,-0.210605 2.11667,-0.272966 0.3638,-0.06236 1.73302,-0.182046 3.04271,-0.265967 1.30968,-0.08392 2.8575,-0.220353 3.43958,-0.303182 1.965,-0.279611 4.38146,-0.0962 4.95119,0.375798 0.22206,0.183966 0.61378,0.898341 0.8705,1.5875 0.25672,0.689159 0.67528,1.491141 0.93014,1.782183 0.25487,0.291042 0.54114,0.786058 0.63617,1.100037 0.095,0.313978 0.3455,0.637152 0.55661,0.718164 0.30391,0.116621 0.32629,0.29867 0.10748,0.874189 -0.26964,0.709204 -0.21379,0.958263 0.56137,2.503331 0.11954,0.238273 0.29871,1.131243 0.39814,1.984373 0.0994,0.85314 0.29072,1.84079 0.42507,2.19478 0.13434,0.354 0.21773,1.60658 0.18529,2.78351 -0.0324,1.17693 0.0652,2.36172 0.21692,2.63287 0.39114,0.69893 -0.0264,2.29663 -0.76717,2.93583 -0.63356,0.54666 -1.82293,0.61322 -4.34439,0.24312 -0.77476,-0.11372 -1.15347,-0.0569 -1.29919,0.19506 -0.11312,0.19556 -0.11438,0.27344 -0.003,0.17306 0.3941,-0.35453 1.16695,0.72806 1.2515,1.75311 0.0768,0.93097 -0.0102,1.10454 -0.84037,1.67674 -0.7734,0.53306 -1.1377,0.61394 -2.21,0.49065 -1.12374,-0.1292 -1.30102,-0.0824 -1.42068,0.37519 -0.0772,0.29518 -0.43976,0.58566 -0.83271,0.66714 -0.38279,0.0794 -1.17224,0.25516 -1.75432,0.39063 -1.36069,0.31667 -6.63325,0.7801 -8.88868,0.78127 -1.34024,7.9e-4 -1.84415,-0.10873 -2.17272,-0.4718 z m 7.35723,-0.34055 c 4.01045,-0.39251 3.99237,-0.38681 5.40173,-1.7051 1.20373,-1.12594 1.28951,-1.16085 2.10055,-0.85472 0.61625,0.23261 0.9693,0.24111 1.30185,0.0314 0.7498,-0.47297 0.53254,-1.00253 -0.47874,-1.16691 -1.28035,-0.20812 -1.43417,-0.33772 -1.83223,-1.54385 -0.46326,-1.40371 -0.28128,-1.74313 1.20636,-2.25003 1.82795,-0.62284 3.46317,-0.57508 3.67981,0.10748 0.0936,0.29492 0.44754,0.71794 0.78653,0.94006 0.54225,0.35529 0.726,0.35802 1.52853,0.0227 1.027,-0.42911 1.32888,-1.24294 1.66217,-4.48104 0.15273,-1.48384 0.08,-2.11986 -0.42346,-3.70417 -0.33432,-1.052 -0.88324,-2.27986 -1.21984,-2.72858 -0.33659,-0.44871 -0.68618,-1.186767 -0.77685,-1.64012 -0.26659,-1.332995 -0.83174,-1.67275 -2.20332,-1.324605 -1.05162,0.26693 -1.19958,0.243424 -1.58102,-0.251164 -1.87813,-2.435286 -1.79971,-2.372258 -3.17907,-2.555236 -1.46428,-0.194238 -2.40112,-0.929105 -2.40112,-1.883457 0,-0.310996 -0.2983,-0.845687 -0.66289,-1.188202 -0.65994,-0.619974 -0.67559,-0.621302 -3.50573,-0.297542 -3.94029,0.450757 -6.41471,1.106216 -6.41471,1.699217 0,0.152788 0.16654,0.465765 0.37009,0.695504 0.22333,0.252063 0.40695,1.194746 0.46302,2.377154 l 0.0929,1.959446 -1.05834,0.608766 c -0.58208,0.334821 -1.29973,0.61393 -1.59477,0.620243 -0.97719,0.0209 -1.63155,0.721046 -1.79202,1.917396 -0.22615,1.68608 0.25038,3.45376 1.23953,4.59804 0.77256,0.89372 0.99793,0.99954 2.16622,1.01708 0.71718,0.0108 1.39143,0.13865 1.49835,0.28417 0.46523,0.63324 0.15159,1.63519 -0.84912,2.71262 -1.58699,1.70864 -1.87948,3.38776 -1.00232,5.75404 0.94718,2.5552 1.73867,2.79117 7.47788,2.22946 z m 13.53066,-10.74741 c -0.21418,-0.21418 -0.21909,-1.23062 -0.009,-1.77916 0.29403,-0.76623 0.63315,-0.4319 0.63315,0.62421 0,1.00485 -0.27188,1.50762 -0.62455,1.15495 z m -3.2188,-12.816804 c -0.13721,-0.712455 -0.2814,-0.856289 -0.63768,-0.636096 -0.19734,0.121967 -0.19985,0.330017 -0.008,0.687953 0.36758,0.686829 0.78183,0.653575 0.64597,-0.05186 z M 134.36339,52.16734 c -0.28248,-0.21365 -0.3745,-0.39224 -0.2045,-0.39687 0.50265,-0.0137 1.14612,0.29457 1.14612,0.54906 0,0.34675 -0.35859,0.28879 -0.94162,-0.15219 z m 7.02703,-17.702172 c 0,-1.400194 1.17339,-3.265742 2.19521,-3.490098 0.46612,-0.102346 1.2467,-0.457307 1.7346,-0.788803 0.73998,-0.502755 1.01517,-0.558077 1.65923,-0.333554 1.85578,0.646928 1.69665,3.171761 -0.26331,4.177766 -0.40132,0.205994 -1.11638,0.260932 -1.98449,0.152471 -1.1877,-0.148394 -1.47084,-0.08565 -2.26828,0.50269 -0.50115,0.36973 -0.94758,0.67225 -0.99207,0.67225 -0.0445,0 -0.0809,-0.40173 -0.0809,-0.892722 z m 4.97417,-1.541449 c 0.17462,-0.174625 0.3175,-0.591344 0.3175,-0.926042 0,-0.490566 -0.14408,-0.608541 -0.74318,-0.608541 -1.56591,0 -2.06623,1.058646 -0.7511,1.58927 0.77006,0.3107 0.8134,0.308686 1.17678,-0.05469 z"
         id="path1122" />
      <path
         style="fill:#0c8d1b;stroke-width:0.264583"
         d="m 139.16819,86.4456 c -0.68545,-0.59325 -1.5311,-1.15013 -1.87922,-1.2375 -0.90901,-0.22815 -2.30627,0.30804 -3.18045,1.22049 -0.97205,1.0146 -1.39553,0.99624 -1.49873,-0.065 -0.0756,-0.77738 -0.1996,-0.88477 -1.40582,-1.21741 -1.55846,-0.42978 -2.65669,-1.36004 -3.33485,-2.82479 -0.55635,-1.20167 -0.65728,-3.57553 -0.20694,-4.86738 0.23522,-0.67474 0.21748,-0.93628 -0.0879,-1.29625 -0.70189,-0.82736 -1.60709,-3.34842 -1.58691,-4.41971 0.011,-0.58208 0.20275,-1.56753 0.42621,-2.18989 0.29244,-0.81449 0.33473,-1.31974 0.15093,-1.80316 -0.14044,-0.36938 -0.25534,-0.84244 -0.25534,-1.05125 0,-0.51081 1.03308,-0.48452 1.61385,0.0411 0.72274,0.65407 1.4391,0.23978 1.96457,-1.13616 0.25836,-0.67649 0.95789,-1.715 1.55451,-2.3078 1.32698,-1.31846 3.33801,-1.89287 6.9429,-1.98312 2.16093,-0.0541 2.86548,-0.21528 6.61458,-1.51329 4.36302,-1.51056 7.03266,-1.95264 7.91139,-1.31011 0.26053,0.19051 0.61714,1.28301 0.91848,2.81382 0.48128,2.44495 0.48104,2.64523 -0.0108,8.72461 -0.27685,3.42221 -0.69197,7.11315 -0.92248,8.20208 -0.23052,1.08893 -0.40177,2.39659 -0.38057,2.90591 0.067,1.60851 0.002,1.86114 -0.64135,2.50477 -0.34574,0.34574 -0.88757,0.99228 -1.20406,1.43674 -0.95715,1.3442 -2.65245,1.93688 -5.70794,1.99552 -1.4552,0.0279 -3.07378,0.14205 -3.59683,0.2536 -0.86481,0.18443 -1.06395,0.10505 -2.19727,-0.87583 z m 5.77247,-0.7129 c 0.24141,-0.0926 0.41851,-0.46888 0.41851,-0.88911 0,-0.40068 0.0757,-1.28091 0.16826,-1.95607 0.13223,-0.96476 0.2746,-1.22755 0.66504,-1.22755 0.27324,0 0.70354,-0.10453 0.95623,-0.23228 0.25269,-0.12776 0.88864,-0.41525 1.41324,-0.63888 0.6581,-0.28054 1.17996,-0.80325 1.68321,-1.68595 0.40116,-0.70364 1.07914,-1.57873 1.50662,-1.94464 0.90169,-0.77181 1.03576,-1.52869 1.55619,-8.7854 0.52495,-7.31981 0.004,-10.37266 -1.67829,-9.83866 -0.31988,0.10152 -0.99839,0.2183 -1.50782,0.25949 -1.40431,0.11357 -3.38829,0.81797 -4.74034,1.68304 -1.78334,1.14102 -4.96597,2.09882 -7.08908,2.13344 -0.98824,0.0161 -2.47919,0.0931 -3.31323,0.17106 -1.66245,0.15542 -1.94815,0.39451 -3.74739,3.13607 -0.66128,1.00762 -1.22913,1.49711 -2.38258,2.05379 -1.28508,0.62021 -1.5965,0.91654 -2.05682,1.95718 -0.64519,1.45854 -0.5529,2.67014 0.33947,4.45693 0.739,1.47972 0.75401,1.48992 2.74917,1.87029 1.44587,0.27565 1.51668,0.31924 0.79375,0.4885 -0.43656,0.10222 -1.16348,0.34703 -1.61537,0.54403 -1.13068,0.4929 -1.32366,1.66034 -0.75069,4.5414 0.0638,0.32063 0.69364,0.93914 1.45195,1.42575 1.28755,0.82621 1.41211,0.85268 3.22186,0.68448 1.97469,-0.18353 3.42341,-0.84136 3.92759,-1.78343 0.22724,-0.42459 0.44693,-0.48391 1.25343,-0.3384 1.3318,0.24027 1.85881,0.52975 3.09456,1.69981 0.89505,0.84747 2.94729,2.37571 3.19028,2.37571 0.0405,0 0.26206,-0.0723 0.49225,-0.1606 z m 26.0831,-1.30895 c -1.09141,-0.1907 -2.92616,-0.5929 -4.07722,-0.89379 -1.15107,-0.30089 -2.40786,-0.54707 -2.79287,-0.54707 -0.38501,0 -1.09238,-0.28947 -1.57193,-0.64327 l -0.8719,-0.64327 -1.05129,0.54796 c -1.67759,0.87441 -1.77942,0.63123 -2.36553,-5.64952 -1.05648,-11.32118 -1.30075,-15.06193 -1.01805,-15.59016 0.22075,-0.41247 0.56599,-0.51255 1.7857,-0.51764 1.52743,-0.006 2.17879,-0.12879 4.81934,-0.90573 3.95547,-1.16384 13.54214,-2.86179 16.20685,-2.8705 1.27393,-0.004 2.35953,0.0415 2.41245,0.10155 0.0529,0.06 0.27715,1.19985 0.49828,2.53297 0.39837,2.40157 0.29613,4.20737 -0.3014,5.32386 -0.25738,0.48092 -0.18324,5.93843 0.12491,9.19498 0.14732,1.55689 0.09,2.03969 -0.35027,2.95096 -0.39353,0.81451 -0.49351,1.43177 -0.39612,2.44537 0.22467,2.33815 -1.20326,3.143 -2.84887,1.60577 -0.46734,-0.43656 -0.88517,-0.79375 -0.9285,-0.79375 -0.0433,0 -0.52554,0.95203 -1.07158,2.11561 -0.89099,1.89866 -1.09032,2.14271 -1.94376,2.37978 -1.1544,0.32067 -1.7047,0.30205 -4.25824,-0.14411 z m 4.57153,-3.45927 c -0.0323,-1.14545 0.0273,-2.20786 0.13229,-2.36091 0.26069,-0.37989 2.36489,-1.7573 3.50223,-2.29256 0.5115,-0.24073 1.18867,-0.71327 1.50482,-1.05009 0.81952,-0.87313 0.66508,-2.62883 -0.32187,-3.65898 l -0.72536,-0.75712 0.76141,-0.65944 c 0.56801,-0.49194 0.68555,-0.7366 0.46276,-0.96325 -0.18435,-0.18755 -0.25013,-0.87945 -0.17189,-1.80787 0.11481,-1.36242 0.0603,-1.57047 -0.57869,-2.20949 -0.66093,-0.66092 -0.71342,-0.89273 -0.83188,-3.67354 -0.0695,-1.63245 -0.23715,-3.17495 -0.37246,-3.42778 -0.31638,-0.59116 -1.44908,-0.87538 -2.1001,-0.52697 -0.27848,0.14905 -0.81011,0.27099 -1.1814,0.27099 -1.13086,0 -2.95276,0.50437 -9.20235,2.54754 -0.68402,0.22363 -1.53411,0.43848 -1.8891,0.47745 -0.35499,0.039 -1.07796,0.33816 -1.6066,0.66488 -0.82099,0.50739 -1.18216,0.56878 -2.47652,0.4209 -2.46045,-0.2811 -2.57096,-0.10457 -2.50026,3.99402 0.0322,1.8677 0.17342,3.75498 0.31378,4.19395 0.38837,1.21463 0.51036,2.07099 0.86228,6.05271 0.36934,4.17889 0.14973,3.87527 3.29861,4.56061 1.40937,0.30675 1.74135,0.30237 2.38125,-0.0314 1.31297,-0.68483 2.14888,-0.51366 2.65287,0.54322 0.43298,0.90797 0.47791,0.92946 1.59361,0.76216 0.90892,-0.13631 1.26013,-0.0708 1.68603,0.31467 0.29587,0.26777 1.27346,0.68192 2.17242,0.92035 2.42044,0.64197 2.70998,0.38871 2.63412,-2.30406 z M 142.84563,54.35212 c -2.03729,-0.11838 -5.43057,-0.24463 -7.54062,-0.28055 -2.11006,-0.0359 -4.07816,-0.15325 -4.37356,-0.26073 -0.30936,-0.11255 -0.70203,-0.66542 -0.92605,-1.30383 -0.30035,-0.85597 -0.56525,-1.15504 -1.16306,-1.31312 -0.63115,-0.1669 -0.89436,-0.0845 -1.42514,0.44631 -0.35806,0.35806 -0.7934,0.65102 -0.96742,0.65102 -0.33103,0 -0.99921,-1.79768 -0.7925,-2.13215 0.0655,-0.10602 -0.0587,-0.69665 -0.27595,-1.31253 -0.4965,-1.40725 -0.50421,-2.9257 -0.0207,-4.08287 0.2059,-0.49277 0.30273,-0.96759 0.21518,-1.05514 -0.0875,-0.0875 -0.13084,-1.5936 -0.0962,-3.34677 0.0513,-2.59673 0.16177,-3.3771 0.5959,-4.21 0.72236,-1.38589 1.04538,-1.60519 2.52986,-1.717582 2.51576,-0.190474 5.79941,-0.609743 7.22882,-0.923007 0.80037,-0.175403 1.72452,-0.370053 2.05367,-0.432555 0.62409,-0.118508 2.16549,-2.270493 2.17464,-3.036073 0.007,-0.556545 1.05492,-1.013468 1.93787,-0.844683 0.38821,0.07421 1.18793,-0.05797 1.77715,-0.293728 2.26373,-0.905766 4.78887,0.410987 5.1607,2.691089 0.0883,0.541497 0.3236,1.401258 0.52288,1.910581 0.43577,1.113778 0.75925,3.092248 0.8003,4.894788 0.0166,0.72761 0.2238,2.75167 0.46052,4.49792 0.44352,3.2719 0.49505,9.4871 0.0841,10.1503 -0.29612,0.47792 -2.17074,1.27082 -3.3302,1.40855 -0.50932,0.0605 -2.59292,0.0132 -4.63021,-0.10524 z m 0.77647,-0.99204 c 0.639,-0.14819 1.22034,-0.14547 1.5053,0.007 0.29671,0.1588 0.52341,0.15272 0.6282,-0.0169 0.0902,-0.14592 0.6489,-0.2653 1.2416,-0.2653 1.15144,0 2.69145,-0.77839 3.11842,-1.5762 0.30047,-0.56142 0.16686,-4.26799 -0.23407,-6.49359 -0.15729,-0.87313 -0.28667,-1.61727 -0.28751,-1.65365 -0.007,-0.31398 -0.83833,0.0491 -1.05987,0.46302 -0.3187,0.59551 -0.91843,0.69764 -1.16523,0.19844 -0.0899,-0.1819 -0.39892,-0.68792 -0.68663,-1.12448 -0.95209,-1.44463 -1.67995,-3.13897 -1.70491,-3.96875 -0.035,-1.16199 -2.3809,-3.43008 -3.232,-3.12473 -0.16857,0.0605 -0.38395,-0.0154 -0.47864,-0.16859 -0.0947,-0.15321 -0.46869,-0.27855 -0.83114,-0.27855 -0.36243,0 -0.99519,-0.17387 -1.40613,-0.38637 -0.90816,-0.46964 -2.70157,-0.37368 -4.04216,0.21626 -0.79063,0.34793 -1.30001,0.38491 -2.64583,0.19211 -1.56742,-0.22455 -1.72789,-0.19685 -2.69387,0.46492 -0.56495,0.38704 -1.32617,0.9029 -1.6916,1.14638 -0.97802,0.65159 -1.10917,0.97821 -1.11364,2.77333 l -0.004,1.6285 1.18915,0.69689 c 1.34383,0.78753 1.98585,1.80851 1.98585,3.158 0,0.63629 0.34055,1.43679 1.10306,2.59283 1.45949,2.21274 1.88884,2.47911 2.6956,1.67235 0.81518,-0.81517 1.70018,-0.17341 2.12203,1.53879 0.20405,0.82821 1.45004,1.50392 2.77317,1.50392 0.42534,0 1.29237,0.23551 1.92672,0.52336 1.30921,0.59406 1.54309,0.61605 2.98818,0.28092 z m -8.31709,-1.04055 c 0,-0.25449 -0.64347,-0.56275 -1.14612,-0.54906 -0.17,0.005 -0.078,0.18322 0.2045,0.39687 0.58303,0.44098 0.94162,0.49894 0.94162,0.15219 z m -7.55953,-7.58784 c 0.55976,-0.55975 0.5281,-0.64255 -0.24568,-0.64255 -0.48507,0 -0.66146,0.14111 -0.66146,0.52916 0,0.63582 0.34198,0.67856 0.90714,0.11339 z m 14.7179,-10.04605 c 0.79744,-0.588335 1.08058,-0.651084 2.26828,-0.50269 0.86811,0.108461 1.58317,0.05352 1.98449,-0.152471 1.95996,-1.006005 2.11909,-3.530838 0.26331,-4.177766 -0.64406,-0.224523 -0.91925,-0.169201 -1.65923,0.333554 -0.4879,0.331496 -1.26848,0.686457 -1.7346,0.788803 -1.02182,0.224356 -2.19521,2.089904 -2.19521,3.490098 0,0.490992 0.0364,0.892722 0.0809,0.892722 0.0445,0 0.49092,-0.30252 0.99207,-0.67225 z m 16.76577,18.95771 c -0.89325,-0.54322 -1.96373,-2.90626 -1.96373,-4.33488 0,-0.45045 -0.17088,-1.48165 -0.37975,-2.29156 -0.77603,-3.00927 -1.19737,-6.10408 -1.49444,-10.97683 -0.40146,-6.585199 0.10253,-9.057539 1.57479,-7.725164 0.55311,0.500557 0.82857,0.322708 0.82857,-0.534958 0,-1.115047 1.52122,-1.605935 7.80521,-2.518688 6.47639,-0.940701 7.10095,-1.018833 9.26041,-1.158483 l 2.11667,-0.136883 1.42279,1.131928 c 1.06545,0.847645 1.70338,1.663529 2.54003,3.248595 1.01072,1.914863 1.14804,2.406761 1.44031,5.159375 0.17769,1.673488 0.43366,3.984378 0.56882,5.135298 0.13517,1.15093 0.24576,2.56131 0.24576,3.13418 0,0.57287 0.20697,1.39197 0.45994,1.82021 0.44717,0.75699 0.44166,0.8131 -0.19843,2.01968 -0.69924,1.31806 -2.02032,2.38257 -3.26788,2.63321 -0.53373,0.10722 -0.8638,0.40677 -1.11762,1.01425 -0.469,1.12247 -2.04359,2.40631 -3.22253,2.62748 -0.51311,0.0963 -1.19705,0.34808 -1.51986,0.55959 -0.81089,0.53132 -4.6686,1.12284 -8.46383,1.29781 -1.74625,0.0805 -3.77225,0.20026 -4.50221,0.26612 -0.98498,0.0889 -1.53501,-0.007 -2.13302,-0.37028 z m 7.29669,-0.56264 c 1.67349,-0.14686 3.51896,-0.37786 4.10104,-0.51333 0.58208,-0.13547 1.37153,-0.31125 1.75432,-0.39063 0.39295,-0.0815 0.75552,-0.37196 0.83271,-0.66714 0.11966,-0.45757 0.29694,-0.50439 1.42068,-0.37519 1.07231,0.12329 1.43661,0.0424 2.21,-0.49065 0.83018,-0.5722 0.91717,-0.74577 0.84038,-1.67674 -0.0846,-1.02505 -0.8574,-2.10764 -1.25151,-1.75311 -0.11158,0.10038 -0.11032,0.0225 0.003,-0.17306 0.14573,-0.25192 0.52443,-0.30878 1.29919,-0.19506 2.52146,0.3701 3.71083,0.30354 4.34439,-0.24312 0.74082,-0.6392 1.15832,-2.2369 0.76717,-2.93583 -0.15174,-0.27115 -0.24936,-1.45594 -0.21692,-2.63287 0.0324,-1.17693 -0.0509,-2.42951 -0.18529,-2.78351 -0.13435,-0.35399 -0.32563,-1.34164 -0.42507,-2.19478 -0.0994,-0.85313 -0.2786,-1.746102 -0.39814,-1.984375 -0.77515,-1.545068 -0.831,-1.794127 -0.56137,-2.503331 0.21882,-0.575519 0.19643,-0.757568 -0.10747,-0.874189 -0.21112,-0.08101 -0.4616,-0.404186 -0.55662,-0.718164 -0.095,-0.313979 -0.3813,-0.808995 -0.63617,-1.100037 -0.25486,-0.291042 -0.67342,-1.093024 -0.93014,-1.782183 -0.25672,-0.689159 -0.64844,-1.403534 -0.8705,-1.5875 -0.56973,-0.471998 -2.98619,-0.655409 -4.95119,-0.375798 -0.58208,0.08283 -2.1299,0.21926 -3.43958,0.303182 -1.30969,0.08392 -2.67891,0.203606 -3.04271,0.265967 -0.3638,0.06236 -1.3163,0.185195 -2.11667,0.272966 -2.91121,0.319251 -4.90551,0.991194 -5.33749,1.798372 -0.24585,0.459372 -0.17514,0.633963 0.46279,1.142629 0.83317,0.664343 0.83554,0.654091 -0.28467,1.227187 -0.43657,0.223342 -1.00085,0.760734 -1.25397,1.194204 -0.40565,0.694673 -0.41349,0.826907 -0.0661,1.115176 0.21674,0.179878 0.39408,0.418795 0.39408,0.530929 0,0.37509 -0.85642,0.537859 -1.22417,0.232662 -0.27344,-0.226938 -0.46153,-0.220052 -0.76021,0.02783 -0.76108,0.631642 -0.37194,6.955653 0.51292,8.335433 0.18702,0.29163 0.4074,0.94648 0.48975,1.45521 0.0824,0.50874 0.27734,1.46077 0.43332,2.11561 0.15597,0.65484 0.35394,2.14295 0.43992,3.30691 0.16009,2.16727 0.59325,3.58606 1.35019,4.42247 0.50863,0.56203 2.28598,0.61409 6.96036,0.20386 z M 176.5886,29.023943 c -0.19156,-0.357936 -0.18905,-0.565986 0.008,-0.687953 0.35628,-0.220193 0.50047,-0.07636 0.63768,0.636096 0.13585,0.705432 -0.27839,0.738686 -0.64597,0.05186 z"
         id="path1120" />
      <path
         style="fill:#0a7016;stroke-width:0.264583"
         d="m 131.12041,88.54907 c -0.97205,-0.11471 -1.96813,-0.41419 -2.38125,-0.71595 -1.60641,-1.1734 -2.52354,-4.50631 -2.59499,-9.43036 -0.0325,-2.23931 -0.18984,-3.81956 -0.46371,-4.65684 -0.29643,-0.90631 -0.42621,-2.46576 -0.45553,-5.47405 -0.0618,-6.33407 0.18302,-6.67458 5.18529,-7.2135 1.4552,-0.15678 3.30067,-0.41656 4.10104,-0.5773 0.80036,-0.16074 2.22911,-0.38433 3.175,-0.49688 1.86869,-0.22234 3.90694,-0.7038 5.15937,-1.21873 1.6124,-0.66291 2.81125,-0.96189 3.22319,-0.80382 0.23279,0.0893 0.70413,-0.0216 1.04742,-0.24656 1.89663,-1.24272 0.0663,-1.50339 -13.25609,-1.88792 l -5.81049,-0.16771 -1.68394,-0.92561 c -1.07854,-0.59284 -1.77655,-1.16917 -1.94151,-1.60307 -0.27688,-0.72823 -0.11068,-18.15688 0.18509,-19.410319 0.19984,-0.84689 0.82345,-1.103854 3.72121,-1.533357 2.98174,-0.441951 3.3499,-0.627131 3.14067,-1.579741 -0.23061,-1.049926 0.20522,-1.756861 1.48587,-2.410203 1.24843,-0.636899 2.66183,-0.898685 7.83745,-1.451625 2.51957,-0.26918 3.92951,-0.317218 4.25157,-0.144856 0.26502,0.141835 0.83084,0.252113 1.25738,0.245062 1.41921,-0.02346 2.18024,0.462918 2.48288,1.586832 0.15334,0.569475 0.50306,1.320505 0.77715,1.668957 0.92714,1.178666 1.64167,4.148587 1.90118,7.9022 0.13582,1.96453 0.36546,4.36859 0.51031,5.34235 0.14485,0.97376 0.26337,2.3174 0.26337,2.98587 0,0.66847 0.17475,1.4821 0.38832,1.80806 0.2914,0.44473 0.35918,1.15236 0.27153,2.83496 -0.14798,2.84084 0.0995,5.66832 0.54903,6.27279 0.28977,0.38963 0.42727,0.4121 0.82614,0.13502 0.91003,-0.63218 1.09733,-0.62941 2.10868,0.0312 0.97276,0.63543 1.08268,0.64978 2.60158,0.33951 1.96845,-0.40211 2.21657,-0.9698 0.74592,-1.70669 -0.5549,-0.27804 -1.32716,-0.58192 -1.71612,-0.67529 -0.87026,-0.2089 -2.39222,-1.45159 -2.18615,-1.78501 0.0829,-0.13417 -0.0362,-0.88697 -0.26465,-1.67289 -0.27004,-0.92892 -0.46625,-3.03401 -0.56071,-6.0158 -0.0799,-2.52276 -0.25816,-6.06265 -0.3961,-7.86641 -0.13794,-1.80376 -0.2508,-4.979547 -0.2508,-7.057301 0,-3.685684 0.0168,-3.797727 0.69031,-4.598131 0.53192,-0.632153 0.881,-0.808468 1.52136,-0.768416 0.78416,0.04905 1.76188,-0.134612 5.19666,-0.976171 0.80036,-0.196098 2.61794,-0.416839 4.03905,-0.490536 1.42112,-0.0737 2.70371,-0.208069 2.8502,-0.298605 0.14649,-0.09054 0.76969,-0.204521 1.3849,-0.2533 0.61521,-0.04878 2.27858,-0.231819 3.69638,-0.406753 1.4178,-0.174934 2.85988,-0.24727 3.20461,-0.160745 0.34474,0.08652 1.45969,0.962845 2.47767,1.947381 1.63768,1.583871 1.92794,2.01864 2.51984,3.774439 0.43378,1.286729 0.77519,3.147119 0.97111,5.291667 0.44142,4.831901 0.78341,7.130731 1.25263,8.419871 0.31623,0.86882 0.3735,1.63216 0.23823,3.175 -0.098,1.11714 -0.23348,2.22464 -0.30118,2.46111 -0.12872,0.44958 -2.71299,2.14866 -3.75414,2.46822 -0.33165,0.1018 -1.21063,0.58526 -1.95329,1.07436 -2.41651,1.59146 -6.52302,2.84903 -11.32125,3.467 -1.68069,0.21645 -3.36652,0.56274 -3.74628,0.76953 -0.37977,0.20678 -0.78235,0.28981 -0.89463,0.1845 -0.11229,-0.10531 -0.0397,0.0871 0.16131,0.42751 l 0.36546,0.61898 4.36563,-0.17357 c 4.85631,-0.19309 7.41044,-0.53227 8.59896,-1.14191 0.43656,-0.22393 1.50812,-0.43526 2.38125,-0.46961 0.87312,-0.0344 2.34028,-0.21101 3.26035,-0.39257 1.58212,-0.3122 1.70318,-0.29977 2.2321,0.22914 0.48875,0.48876 0.5861,1.01264 0.77234,4.15638 0.14174,2.39274 0.11768,3.96836 -0.0719,4.70586 -0.15672,0.60981 -0.29439,1.28733 -0.30593,1.50562 -0.0413,0.78233 0.34855,8.89041 0.48984,10.18645 0.19754,1.81199 -0.31514,5.58605 -0.8933,6.576 -0.61553,1.05394 -1.7684,1.7126 -3.38561,1.93426 -0.87351,0.11973 -1.54481,0.41042 -2.06023,0.89211 -1.18889,1.11113 -2.88167,1.34393 -10.01696,1.37764 -6.16483,0.0291 -6.46238,0.007 -7.35094,-0.54519 -0.50932,-0.31655 -1.18543,-0.57599 -1.50246,-0.57653 -0.31703,-5.3e-4 -0.74567,-0.17025 -0.95254,-0.37712 -0.52903,-0.52903 -0.95359,-3.47598 -1.38018,-9.58003 -0.35517,-5.08207 -0.75168,-8.02777 -1.18539,-8.80646 -0.24464,-0.43922 -1.01355,2.02648 -1.02423,3.28449 -0.0105,1.23025 -0.24223,3.75834 -0.55792,6.08542 -0.27595,2.03414 -0.39247,3.27144 -0.66032,7.01146 -0.28477,3.9762 -0.46163,4.99016 -0.90188,5.17061 -1.21451,0.49781 -18.19308,0.80753 -21.68426,0.39557 z m 13.84189,-1.48124 c 3.05548,-0.0586 4.75078,-0.65132 5.70794,-1.99552 0.31648,-0.44446 0.85831,-1.091 1.20405,-1.43674 0.64363,-0.64363 0.70832,-0.89626 0.64135,-2.50477 -0.0212,-0.50932 0.15005,-1.81698 0.38057,-2.90591 0.23051,-1.08893 0.64563,-4.77987 0.92248,-8.20208 0.49181,-6.07938 0.49205,-6.27966 0.0108,-8.72461 -0.30134,-1.53081 -0.65795,-2.62331 -0.91848,-2.81382 -0.87872,-0.64253 -3.54837,-0.20045 -7.91139,1.31011 -3.7491,1.29801 -4.45364,1.45919 -6.61458,1.51329 -3.60489,0.0902 -5.61592,0.66466 -6.9429,1.98312 -0.59662,0.5928 -1.29615,1.63131 -1.55451,2.3078 -0.52547,1.37594 -1.24184,1.79023 -1.96457,1.13616 -0.58077,-0.52559 -1.61386,-0.55188 -1.61386,-0.0411 0,0.20881 0.11491,0.68187 0.25535,1.05125 0.18379,0.48342 0.1415,0.98867 -0.15094,1.80316 -0.22345,0.62236 -0.41524,1.60781 -0.42621,2.18989 -0.0202,1.07129 0.88502,3.59235 1.58691,4.41971 0.30538,0.35997 0.32312,0.62151 0.0879,1.29625 -0.45033,1.29185 -0.34941,3.66571 0.20695,4.86738 0.67815,1.46475 1.77638,2.39501 3.33484,2.82479 1.20622,0.33264 1.33023,0.44003 1.40583,1.21741 0.10319,1.0612 0.52668,1.07956 1.49873,0.065 0.87417,-0.91245 2.27143,-1.44864 3.18045,-1.22049 0.34812,0.0874 1.19377,0.64425 1.87922,1.2375 1.13332,0.98088 1.33246,1.06026 2.19727,0.87583 0.52305,-0.11155 2.14163,-0.22567 3.59684,-0.2536 z m 30.3197,-2.49997 c 0.85344,-0.23707 1.05277,-0.48112 1.94376,-2.37978 0.54604,-1.16358 1.02825,-2.11561 1.07158,-2.11561 0.0433,0 0.46116,0.35719 0.9285,0.79375 1.64561,1.53723 3.07354,0.73238 2.84887,-1.60577 -0.0974,-1.0136 0.003,-1.63086 0.39612,-2.44537 0.44028,-0.91127 0.49759,-1.39407 0.35027,-2.95096 -0.30815,-3.25655 -0.38229,-8.71406 -0.12491,-9.19498 0.59753,-1.11649 0.69977,-2.92229 0.3014,-5.32386 -0.22113,-1.33312 -0.44536,-2.47295 -0.49828,-2.53297 -0.0529,-0.06 -1.13852,-0.10571 -2.41245,-0.10155 -2.66471,0.009 -12.25138,1.70666 -16.20685,2.8705 -2.64055,0.77694 -3.29191,0.89935 -4.81934,0.90573 -1.21971,0.005 -1.56495,0.10517 -1.7857,0.51764 -0.2827,0.52823 -0.0384,4.26898 1.01805,15.59016 0.58611,6.28075 0.68794,6.52393 2.36553,5.64952 l 1.05129,-0.54796 0.8719,0.64327 c 0.47955,0.3538 1.18692,0.64327 1.57193,0.64327 0.38501,0 1.6418,0.24618 2.79287,0.54707 2.20282,0.57582 5.60577,1.21929 6.72305,1.27128 0.3638,0.0169 1.08939,-0.0881 1.61241,-0.23338 z M 149.49221,53.87844 c 0.59969,-0.25791 1.19091,-0.63124 1.31383,-0.82963 0.41091,-0.6632 0.35938,-6.8784 -0.0841,-10.1503 -0.23671,-1.74625 -0.44394,-3.77031 -0.46051,-4.49792 -0.041,-1.80254 -0.36453,-3.78101 -0.8003,-4.894788 -0.19928,-0.509323 -0.43457,-1.369084 -0.52288,-1.910581 -0.37183,-2.280102 -2.89697,-3.596855 -5.1607,-2.691089 -0.58922,0.235762 -1.38895,0.367939 -1.77716,0.293728 -0.88294,-0.168785 -1.93121,0.288138 -1.93786,0.844683 -0.009,0.76558 -1.55055,2.917565 -2.17464,3.036073 -0.32915,0.0625 -1.2533,0.257152 -2.05367,0.432555 -1.42941,0.313264 -4.71306,0.732533 -7.22882,0.923007 -1.48448,0.112392 -1.8075,0.331692 -2.52986,1.717582 -0.43414,0.8329 -0.54459,1.61327 -0.5959,4.21 -0.0346,1.75317 0.009,3.25922 0.0962,3.34677 0.0876,0.0876 -0.009,0.56237 -0.21518,1.05514 -0.48349,1.15717 -0.47578,2.67562 0.0207,4.08287 0.2173,0.61588 0.34148,1.20651 0.27595,1.31253 -0.20671,0.33447 0.46147,2.13215 0.7925,2.13215 0.17402,0 0.60936,-0.29296 0.96742,-0.65102 0.53078,-0.53078 0.79399,-0.61321 1.42514,-0.44631 0.59781,0.15808 0.86271,0.45715 1.16306,1.31312 0.22402,0.63841 0.61669,1.19128 0.92605,1.30383 0.2954,0.10748 2.2635,0.22481 4.37356,0.26073 2.11005,0.0359 5.50333,0.16217 7.54062,0.28055 4.22501,0.2455 5.12316,0.18149 6.64658,-0.47368 z M 126.83834,44.6183 c 0,-0.38805 0.17639,-0.52916 0.66146,-0.52916 0.77378,0 0.80544,0.0828 0.24568,0.64255 -0.56516,0.56517 -0.90714,0.52243 -0.90714,-0.11339 z m 39.02604,9.12921 c 3.79523,-0.17497 7.65294,-0.76649 8.46383,-1.29781 0.32281,-0.21151 1.00675,-0.46333 1.51986,-0.55959 1.17894,-0.22117 2.75353,-1.50501 3.22253,-2.62748 0.25382,-0.60748 0.58389,-0.90703 1.11762,-1.01425 1.24756,-0.25064 2.56864,-1.31515 3.26788,-2.63321 0.64009,-1.20658 0.6456,-1.26269 0.19843,-2.01968 -0.25297,-0.42824 -0.45994,-1.24734 -0.45994,-1.82021 0,-0.57287 -0.11059,-1.98325 -0.24576,-3.13418 -0.13516,-1.15092 -0.39113,-3.46181 -0.56882,-5.135298 -0.29227,-2.752614 -0.42959,-3.244512 -1.44031,-5.159375 -0.83665,-1.585066 -1.47458,-2.40095 -2.54003,-3.248595 l -1.42279,-1.131928 -2.11667,0.136883 c -2.15946,0.13965 -2.78402,0.217782 -9.26041,1.158483 -6.28399,0.912753 -7.80521,1.403641 -7.80521,2.518688 0,0.857666 -0.27546,1.035515 -0.82857,0.534958 -0.72498,-0.656094 -1.15688,-0.295442 -1.53531,1.282016 -0.62309,2.597336 0.21254,12.602158 1.45496,17.419978 0.20887,0.80991 0.37975,1.84111 0.37975,2.29156 0,0.45045 0.26053,1.49981 0.57897,2.33192 0.74303,1.94168 1.63459,2.54316 3.51778,2.37324 0.72996,-0.0659 2.75596,-0.18562 4.50221,-0.26612 z"
         id="path1118" />
      <path
         style="fill:#07500f;stroke-width:0.264583"
         d="m 131.78193,89.83118 c -3.71663,-0.45118 -4.20589,-0.60421 -5.11037,-1.59848 -0.68026,-0.74778 -1.00699,-1.75698 -1.52834,-4.72065 -0.65372,-3.71619 -0.72181,-4.57273 -0.468,-5.88698 0.14393,-0.74523 0.14698,-1.76831 0.008,-2.51354 -0.28661,-1.53146 -0.7834,-8.238 -0.79866,-10.78177 -0.0149,-2.48318 0.49602,-3.61397 2.04231,-4.52015 0.6642,-0.38925 1.73452,-0.76712 2.37848,-0.8397 1.22399,-0.13796 1.98101,-0.69116 1.54393,-1.12824 -0.13637,-0.13637 -1.61101,-0.7633 -3.27696,-1.39317 -4.17361,-1.57796 -3.98293,-1.12836 -3.67076,-8.6552 0.13579,-3.27422 0.20768,-7.9635 0.15974,-10.42063 -0.0945,-4.843393 0.34555,-7.731273 1.31529,-8.63193 0.26283,-0.244102 1.22678,-0.575172 2.14212,-0.735713 0.91535,-0.16054 2.04644,-0.483954 2.51355,-0.718696 1.12955,-0.567658 5.52901,-1.447836 7.2524,-1.450955 0.75682,-0.0014 1.94745,-0.119139 2.64583,-0.26171 1.05545,-0.215461 4.36802,-0.498762 6.56146,-0.561155 2.48748,-0.07076 4.89479,1.228595 4.89479,2.641963 0,0.496254 0.24686,0.907241 0.78304,1.303655 0.43067,0.318408 0.89523,0.578923 1.03236,0.578923 0.13712,0 0.33527,-0.74414 0.44032,-1.653646 0.10505,-0.909505 0.29002,-1.915309 0.41104,-2.23512 0.2906,-0.767934 1.41016,-1.479283 2.44985,-1.556589 0.46008,-0.03421 1.61043,-0.19343 2.55631,-0.353823 2.45736,-0.416691 15.14985,-1.599654 17.2187,-1.604814 1.5123,-0.0038 1.90499,0.10456 2.99416,0.825993 1.44436,0.956707 3.81888,3.753552 4.0123,4.725916 0.0724,0.363802 0.24966,1.018646 0.39397,1.455208 0.14432,0.436563 0.39023,1.984375 0.54648,3.439584 0.15624,1.455208 0.51261,3.170569 0.79193,3.811919 0.52334,1.20164 0.70861,2.10593 0.89945,4.39016 0.0608,0.72761 0.28634,2.9898 0.50122,5.02709 l 0.39068,3.70416 -1.02682,1.21992 c -1.14431,1.35949 -1.1753,1.02602 0.33984,3.65618 0.3942,0.68431 0.51356,1.88852 0.72987,7.36371 0.14222,3.60009 0.34687,7.97436 0.45476,9.72061 0.27259,4.4118 -0.0368,11.9278 -0.5406,13.13359 -0.75457,1.80597 -3.79349,2.68504 -11.30177,3.26926 -11.22812,0.87367 -13.13342,0.8839 -15.22951,0.0818 -1.11499,-0.42668 -1.65526,-0.8132 -2.03405,-1.45521 -0.28369,-0.48081 -0.67595,-0.8742 -0.8717,-0.8742 -0.19574,0 -0.68427,0.7317 -1.08561,1.626 -1.20609,2.68754 -1.90035,2.83061 -14.31478,2.9501 -3.85905,0.0371 -6.72711,-0.08 -9.14576,-0.37364 z m 16.823,-1.29884 c 2.07114,-0.11051 3.96102,-0.28099 4.19974,-0.37884 0.44025,-0.18045 0.61711,-1.19441 0.90188,-5.17061 0.26785,-3.74002 0.38437,-4.97732 0.66032,-7.01146 0.31569,-2.32708 0.54747,-4.85517 0.55792,-6.08542 0.0107,-1.25801 0.77959,-3.72371 1.02423,-3.28449 0.43371,0.77869 0.83022,3.72439 1.18539,8.80646 0.42659,6.10405 0.85115,9.051 1.38018,9.58003 0.20687,0.20687 0.63551,0.37657 0.95254,0.37712 0.31703,5.2e-4 0.99314,0.25998 1.50246,0.57653 0.88856,0.55224 1.18611,0.57431 7.35094,0.54519 7.13529,-0.0337 8.82807,-0.26651 10.01696,-1.37764 0.51542,-0.48169 1.18672,-0.77238 2.06023,-0.89211 1.61721,-0.22166 2.77008,-0.88032 3.38561,-1.93426 0.57816,-0.98995 1.09084,-4.76401 0.8933,-6.576 -0.14129,-1.29604 -0.53119,-9.40412 -0.48984,-10.18645 0.0115,-0.21829 0.14921,-0.89581 0.30593,-1.50562 0.18955,-0.7375 0.21361,-2.31312 0.0719,-4.70586 -0.18624,-3.14374 -0.28359,-3.66762 -0.77234,-4.15638 -0.52892,-0.52891 -0.64998,-0.54134 -2.2321,-0.22914 -0.92007,0.18156 -2.38723,0.35821 -3.26035,0.39257 -0.87313,0.0343 -1.94469,0.24568 -2.38125,0.46961 -1.18852,0.60964 -3.74265,0.94882 -8.59896,1.14191 l -4.36563,0.17357 -0.36546,-0.61898 c -0.201,-0.34044 -0.2736,-0.53282 -0.16131,-0.42751 0.11228,0.10531 0.51486,0.0223 0.89463,-0.1845 0.37976,-0.20679 2.06559,-0.55308 3.74628,-0.76953 4.79823,-0.61797 8.90474,-1.87554 11.32125,-3.467 0.74266,-0.4891 1.62164,-0.97256 1.95329,-1.07436 1.04115,-0.31956 3.62542,-2.01864 3.75414,-2.46822 0.0677,-0.23647 0.20323,-1.34397 0.30118,-2.46111 0.13527,-1.54284 0.078,-2.30618 -0.23823,-3.175 -0.46922,-1.28914 -0.81121,-3.58797 -1.25263,-8.419871 -0.19592,-2.144548 -0.53733,-4.004938 -0.97111,-5.291667 -0.5919,-1.755799 -0.88216,-2.190568 -2.51984,-3.774439 -1.01798,-0.984536 -2.13293,-1.860857 -2.47767,-1.947381 -0.34473,-0.08652 -1.78681,-0.01419 -3.20461,0.160745 -1.4178,0.174934 -3.08117,0.357973 -3.69638,0.406753 -0.61521,0.04878 -1.23841,0.162764 -1.3849,0.2533 -0.14649,0.09054 -1.42908,0.224908 -2.8502,0.298605 -1.42111,0.0737 -3.23869,0.294438 -4.03905,0.490536 -3.43478,0.841559 -4.4125,1.025219 -5.19666,0.976171 -0.64036,-0.04005 -0.98944,0.136263 -1.52136,0.768416 -0.67349,0.800404 -0.69031,0.912447 -0.69031,4.598131 0,2.077754 0.11286,5.253541 0.2508,7.057301 0.13794,1.80376 0.31619,5.34365 0.3961,7.86641 0.0945,2.98179 0.29067,5.08688 0.56071,6.0158 0.22848,0.78592 0.34757,1.53872 0.26465,1.67289 -0.20607,0.33342 1.31589,1.57611 2.18615,1.78501 0.38896,0.0934 1.16122,0.39725 1.71612,0.67529 1.47065,0.73689 1.22253,1.30458 -0.74592,1.70669 -1.5189,0.31027 -1.62882,0.29592 -2.60158,-0.33951 -1.01135,-0.66066 -1.19865,-0.66343 -2.10868,-0.0312 -0.39887,0.27708 -0.53637,0.25461 -0.82614,-0.13502 -0.44954,-0.60447 -0.69701,-3.43195 -0.54903,-6.27279 0.0876,-1.6826 0.0199,-2.39023 -0.27153,-2.83496 -0.21357,-0.32596 -0.38832,-1.13959 -0.38832,-1.80806 0,-0.66847 -0.11852,-2.01211 -0.26337,-2.98587 -0.14485,-0.97376 -0.37449,-3.37782 -0.51031,-5.34235 -0.25951,-3.753613 -0.97404,-6.723534 -1.90118,-7.9022 -0.27409,-0.348452 -0.62381,-1.099482 -0.77715,-1.668957 -0.30264,-1.123914 -1.06367,-1.610294 -2.48288,-1.586832 -0.42654,0.0071 -0.99236,-0.103227 -1.25738,-0.245062 -0.32206,-0.172362 -1.732,-0.124324 -4.25157,0.144856 -5.17561,0.55294 -6.58902,0.814726 -7.83745,1.451625 -1.28065,0.653342 -1.71647,1.360277 -1.48587,2.410203 0.20923,0.95261 -0.15893,1.13779 -3.14067,1.579741 -2.89776,0.429503 -3.52137,0.686467 -3.72121,1.533357 -0.29577,1.253439 -0.46197,18.682089 -0.18509,19.410319 0.16496,0.4339 0.86297,1.01023 1.94151,1.60307 l 1.68394,0.92561 5.81049,0.16771 c 11.24116,0.32446 13.88027,0.56041 13.88027,1.24098 0,0.40828 -1.22697,1.06412 -1.6716,0.8935 -0.41194,-0.15807 -1.61079,0.14091 -3.22319,0.80382 -1.25243,0.51493 -3.29068,0.99639 -5.15937,1.21873 -0.94589,0.11255 -2.37464,0.33614 -3.175,0.49688 -0.80037,0.16074 -2.64584,0.42052 -4.10104,0.5773 -5.00227,0.53892 -5.24704,0.87943 -5.18529,7.2135 0.0293,3.00829 0.1591,4.56774 0.45554,5.47405 0.27386,0.83728 0.43121,2.41753 0.4637,4.65684 0.0714,4.92405 0.98858,8.25696 2.59499,9.43036 0.41312,0.30176 1.4092,0.60124 2.38125,0.71595 2.14677,0.25332 12.61094,0.24331 17.48452,-0.0167 z"
         id="path1116" />
    </g>
    <text
       xml:space="preserve"
       style="font-weight:bold;font-size:8.8747px;line-height:1.25;font-family:sans-serif;-inkscape-font-specification:'sans-serif, Bold';stroke-width:0.605092"
       x="85.202003"
       y="100.89256"
       id="text10459"><tspan
         sodipodi:role="line"
         id="tspan10457"
         style="stroke-width:0.605092"
         x="85.202003"
         y="100.89256">Archaea Taxonomic Classification</tspan><tspan
         sodipodi:role="line"
         style="stroke-width:0.605092"
         x="85.202003"
         y="111.98594"
         id="tspan13809"></tspan><tspan
         sodipodi:role="line"
         style="stroke-width:0.605092"
         x="85.202003"
         y="123.07932"
         id="tspan13811" /></text>
  </g>
</svg>
